%
M48
M72
T01C0.01378
T02C0.03000
T03C0.03150
T04C0.03200
T05C0.03937
T06C0.04000
T07C0.04700
T08C0.05000
T09C0.05400
T10C0.08000
%
T01
X41500Y114500
X48500Y119500
X46011Y154500
X31500Y154500
X37500Y166500
X44500Y186500
X24500Y212500
X24669Y220500
X12500Y220500
X7500Y213500
X7500Y201500
X23669Y235518
X11500Y244500
X6989Y247500
X25500Y250500
X36500Y239500
X47500Y248500
X63500Y249500
X95500Y223500
X105500Y214500
X105500Y206500
X97500Y207500
X94500Y179500
X77500Y175500
X71500Y154500
X111500Y134500
X146500Y120500
X161500Y144500
X181500Y144500
X231500Y184500
X141500Y204500
X141500Y264500
X161500Y274500
X135500Y287500
X161500Y304500
X91500Y304500
X63500Y214500
T02
X115500Y219500
X125500Y219500
X135500Y219500
X145500Y219500
X145500Y279500
X135500Y279500
X125500Y279500
X115500Y279500
T03
X61500Y274500
X17654Y114500
X91500Y94500
X191500Y34500
X311500Y234500
T04
X271500Y264500
X251500Y264500
X231500Y254500
X231500Y274500
X231500Y294500
X251500Y294500
X271500Y294500
X231500Y234500
X231500Y214500
X231500Y194500
X251500Y194500
X271500Y194500
X271500Y164500
X251500Y164500
X231500Y154500
X231500Y134500
X231500Y114500
X191500Y114500
X191500Y134500
X191500Y154500
X191500Y174500
X191500Y194500
X191500Y214500
X191500Y234500
X191500Y254500
X191500Y274500
X191500Y294500
X231500Y174500
X144500Y138500
X124500Y138500
T05
X341500Y54500
X351500Y54500
X361500Y54500
X371500Y54500
X371500Y19500
X361500Y19500
X351500Y19500
X341500Y19500
T06
X321500Y14500
X311500Y14500
X301500Y14500
X291500Y14500
X281500Y14500
X281500Y29500
X291500Y29500
X301500Y29500
X311500Y29500
X321500Y29500
X321500Y44500
X311500Y44500
X301500Y44500
X291500Y44500
X281500Y44500
X281500Y64500
X291500Y64500
X301500Y64500
X311500Y64500
X321500Y64500
X321500Y79500
X311500Y79500
X301500Y79500
X291500Y79500
X281500Y79500
X281500Y94500
X291500Y94500
X301500Y94500
X311500Y94500
X321500Y94500
X321500Y114500
X311500Y114500
X311500Y124500
X321500Y124500
X331500Y124500
X341500Y124500
X341500Y114500
X331500Y114500
X351500Y114500
X361500Y114500
X361500Y124500
X351500Y124500
X371500Y124500
X381500Y124500
X381500Y114500
X371500Y114500
X391500Y114500
X391500Y124500
X301500Y124500
X301500Y114500
X151500Y99500
X131500Y99500
X131500Y49500
X151500Y49500
X66500Y69500
X61500Y49500
X21500Y124500
X21500Y144500
X21500Y164500
X51500Y164500
X71500Y164500
X71500Y134500
X51500Y134500
X116500Y199500
X51500Y284500
X51500Y304500
X106500Y294500
X116500Y294500
X126500Y294500
X126500Y314500
X116500Y314500
X106500Y314500
X301500Y294500
X301500Y284500
X311500Y284500
X321500Y284500
X321500Y294500
X311500Y294500
X331500Y294500
X341500Y294500
X341500Y284500
X331500Y284500
X351500Y284500
X361500Y284500
X361500Y294500
X351500Y294500
X371500Y294500
X381500Y294500
X381500Y284500
X371500Y284500
X391500Y284500
X391500Y294500
T07
X61343Y24500
X41657Y24500
X41500Y94500
X31500Y94500
X21500Y94500
X21500Y274657
X21500Y294343
T08
X136500Y170500
X146500Y170500
X156500Y170500
T09
X211500Y70500
X221500Y70500
X231500Y70500
T10
X11500Y14500
X11500Y314500
X391500Y314500
X391500Y14500
M30
