%
M48
M72
T01C0.03000
T02C0.03200
T03C0.03937
T04C0.04000
T05C0.04700
T06C0.05000
T07C0.05400
T08C0.06000
T09C0.08000
%
T01
X75500Y176500
X85500Y176500
X95500Y176500
X105500Y176500
X105500Y236500
X95500Y236500
X85500Y236500
X75500Y236500
T02
X51500Y241500
X51500Y221500
X66500Y101500
X56500Y81500
X74500Y75500
X94500Y75500
X101500Y51500
X81500Y51500
X16500Y81500
X106500Y101500
T03
X51500Y127500
X61500Y161500
X111500Y161500
X251500Y16500
X261500Y16500
X271500Y16500
X281500Y16500
T04
X281500Y51500
X271500Y51500
X261500Y51500
X251500Y51500
X251500Y61500
X261500Y61500
X271500Y61500
X281500Y61500
X291500Y61500
X301500Y61500
X311500Y61500
X321500Y61500
X331500Y61500
X341500Y61500
X341500Y51500
X331500Y51500
X321500Y51500
X311500Y51500
X301500Y51500
X291500Y51500
X91500Y136500
X71500Y136500
X41500Y166500
X21500Y166500
X21500Y206500
X21500Y216500
X21500Y226500
X251500Y221500
X261500Y221500
X271500Y221500
X281500Y221500
X291500Y221500
X301500Y221500
X311500Y221500
X321500Y221500
X331500Y221500
X341500Y221500
X341500Y231500
X331500Y231500
X321500Y231500
X311500Y231500
X301500Y231500
X291500Y231500
X281500Y231500
X271500Y231500
X261500Y231500
X251500Y231500
T05
X61343Y21500
X41657Y21500
T06
X27500Y106500
X27500Y116500
X27500Y126500
T07
X101500Y17500
X111500Y17500
X121500Y17500
T08
X191500Y27500
T09
X11500Y11500
X11500Y241500
X391500Y241500
X391500Y11500
M30
