G75*
%MOIN*%
%OFA0B0*%
%FSLAX25Y25*%
%IPPOS*%
%LPD*%
%AMOC8*
5,1,8,0,0,1.08239X$1,22.5*
%
%ADD10R,0.07500X0.07500*%
%ADD11C,0.07500*%
%ADD12C,0.07050*%
%ADD13C,0.05937*%
%ADD14C,0.10000*%
%ADD15OC8,0.10000*%
%ADD16OC8,0.05200*%
%ADD17R,0.05000X0.05000*%
%ADD18C,0.05000*%
%ADD19OC8,0.07000*%
%ADD20R,0.08100X0.08100*%
%ADD21C,0.08100*%
%ADD22C,0.06000*%
%ADD23C,0.01000*%
%ADD24R,0.09000X0.09000*%
%ADD25R,0.05906X0.05906*%
%ADD26C,0.04000*%
%ADD27C,0.00600*%
%ADD28OC8,0.05906*%
D10*
X0027500Y0126500D03*
D11*
X0027500Y0116500D03*
X0027500Y0106500D03*
D12*
X0041657Y0025025D02*
X0041657Y0017975D01*
X0061343Y0017975D02*
X0061343Y0025025D01*
D13*
X0251500Y0019469D02*
X0251500Y0013531D01*
X0261500Y0013531D02*
X0261500Y0019469D01*
X0271500Y0019469D02*
X0271500Y0013531D01*
X0281500Y0013531D02*
X0281500Y0019469D01*
D14*
X0091500Y0136500D03*
X0041500Y0166500D03*
D15*
X0021500Y0166500D03*
X0071500Y0136500D03*
D16*
X0066500Y0101500D03*
X0056500Y0081500D03*
X0074500Y0075500D03*
X0094500Y0075500D03*
X0101500Y0051500D03*
X0081500Y0051500D03*
X0016500Y0081500D03*
X0106500Y0101500D03*
X0051500Y0221500D03*
X0051500Y0241500D03*
D17*
X0075500Y0176500D03*
D18*
X0085500Y0176500D03*
X0095500Y0176500D03*
X0105500Y0176500D03*
X0105500Y0236500D03*
X0095500Y0236500D03*
X0085500Y0236500D03*
X0075500Y0236500D03*
D19*
X0251500Y0231500D03*
X0261500Y0231500D03*
X0271500Y0231500D03*
X0281500Y0231500D03*
X0291500Y0231500D03*
X0301500Y0231500D03*
X0311500Y0231500D03*
X0321500Y0231500D03*
X0331500Y0231500D03*
X0341500Y0231500D03*
X0341500Y0221500D03*
X0331500Y0221500D03*
X0321500Y0221500D03*
X0311500Y0221500D03*
X0301500Y0221500D03*
X0291500Y0221500D03*
X0281500Y0221500D03*
X0271500Y0221500D03*
X0261500Y0221500D03*
X0251500Y0221500D03*
X0251500Y0061500D03*
X0261500Y0061500D03*
X0271500Y0061500D03*
X0281500Y0061500D03*
X0291500Y0061500D03*
X0301500Y0061500D03*
X0311500Y0061500D03*
X0321500Y0061500D03*
X0331500Y0061500D03*
X0341500Y0061500D03*
X0341500Y0051500D03*
X0331500Y0051500D03*
X0321500Y0051500D03*
X0311500Y0051500D03*
X0301500Y0051500D03*
X0291500Y0051500D03*
X0281500Y0051500D03*
X0271500Y0051500D03*
X0261500Y0051500D03*
X0251500Y0051500D03*
D20*
X0101500Y0017500D03*
D21*
X0111500Y0017500D03*
X0121500Y0017500D03*
D22*
X0021500Y0206500D03*
X0021500Y0216500D03*
X0021500Y0226500D03*
D23*
X0018021Y0006000D02*
X0384979Y0006000D01*
X0384294Y0006685D01*
X0383000Y0009809D01*
X0383000Y0013191D01*
X0384294Y0016315D01*
X0386685Y0018706D01*
X0389809Y0020000D01*
X0393191Y0020000D01*
X0396315Y0018706D01*
X0397000Y0018021D01*
X0397000Y0234979D01*
X0396315Y0234294D01*
X0393191Y0233000D01*
X0389809Y0233000D01*
X0386685Y0234294D01*
X0384294Y0236685D01*
X0383000Y0239809D01*
X0383000Y0243191D01*
X0384294Y0246315D01*
X0384979Y0247000D01*
X0018021Y0247000D01*
X0018706Y0246315D01*
X0020000Y0243191D01*
X0020000Y0239809D01*
X0018706Y0236685D01*
X0016315Y0234294D01*
X0013191Y0233000D01*
X0009809Y0233000D01*
X0006685Y0234294D01*
X0006000Y0234979D01*
X0006000Y0018021D01*
X0006685Y0018706D01*
X0009809Y0020000D01*
X0013191Y0020000D01*
X0016315Y0018706D01*
X0018706Y0016315D01*
X0020000Y0013191D01*
X0020000Y0009809D01*
X0018706Y0006685D01*
X0018021Y0006000D01*
X0018513Y0006493D02*
X0384487Y0006493D01*
X0383960Y0007491D02*
X0019040Y0007491D01*
X0019453Y0008490D02*
X0383547Y0008490D01*
X0383133Y0009488D02*
X0283415Y0009488D01*
X0284031Y0009743D02*
X0285288Y0011000D01*
X0285968Y0012643D01*
X0285968Y0020357D01*
X0285288Y0022000D01*
X0284031Y0023257D01*
X0283500Y0023477D01*
X0283500Y0046500D01*
X0283571Y0046500D01*
X0286500Y0049429D01*
X0286500Y0053571D01*
X0283571Y0056500D01*
X0279429Y0056500D01*
X0276500Y0053571D01*
X0273571Y0056500D01*
X0269429Y0056500D01*
X0266500Y0053571D01*
X0266500Y0049429D01*
X0269429Y0046500D01*
X0269500Y0046500D01*
X0269500Y0023477D01*
X0268969Y0023257D01*
X0267712Y0022000D01*
X0267031Y0020357D01*
X0267031Y0012643D01*
X0267712Y0011000D01*
X0268969Y0009743D01*
X0270611Y0009063D01*
X0272389Y0009063D01*
X0274031Y0009743D01*
X0275288Y0011000D01*
X0275968Y0012643D01*
X0275968Y0020357D01*
X0275288Y0022000D01*
X0274031Y0023257D01*
X0273500Y0023477D01*
X0273500Y0046500D01*
X0273571Y0046500D01*
X0276500Y0049429D01*
X0276500Y0053571D01*
X0276500Y0049429D01*
X0279429Y0046500D01*
X0279500Y0046500D01*
X0279500Y0023477D01*
X0278969Y0023257D01*
X0277712Y0022000D01*
X0277031Y0020357D01*
X0277031Y0012643D01*
X0277712Y0011000D01*
X0278969Y0009743D01*
X0280611Y0009063D01*
X0282389Y0009063D01*
X0284031Y0009743D01*
X0284775Y0010487D02*
X0383000Y0010487D01*
X0383000Y0011485D02*
X0285489Y0011485D01*
X0285903Y0012484D02*
X0383000Y0012484D01*
X0383121Y0013482D02*
X0285968Y0013482D01*
X0285968Y0014481D02*
X0383534Y0014481D01*
X0383948Y0015479D02*
X0285968Y0015479D01*
X0285968Y0016478D02*
X0384457Y0016478D01*
X0385455Y0017476D02*
X0285968Y0017476D01*
X0285968Y0018475D02*
X0386454Y0018475D01*
X0388537Y0019473D02*
X0285968Y0019473D01*
X0285921Y0020472D02*
X0397000Y0020472D01*
X0397000Y0021470D02*
X0285508Y0021470D01*
X0284819Y0022469D02*
X0397000Y0022469D01*
X0397000Y0023467D02*
X0283523Y0023467D01*
X0283500Y0024466D02*
X0397000Y0024466D01*
X0397000Y0025464D02*
X0283500Y0025464D01*
X0283500Y0026463D02*
X0397000Y0026463D01*
X0397000Y0027461D02*
X0283500Y0027461D01*
X0283500Y0028460D02*
X0397000Y0028460D01*
X0397000Y0029458D02*
X0283500Y0029458D01*
X0283500Y0030457D02*
X0397000Y0030457D01*
X0397000Y0031455D02*
X0283500Y0031455D01*
X0283500Y0032454D02*
X0397000Y0032454D01*
X0397000Y0033452D02*
X0283500Y0033452D01*
X0283500Y0034451D02*
X0397000Y0034451D01*
X0397000Y0035449D02*
X0283500Y0035449D01*
X0283500Y0036448D02*
X0397000Y0036448D01*
X0397000Y0037446D02*
X0283500Y0037446D01*
X0283500Y0038445D02*
X0397000Y0038445D01*
X0397000Y0039443D02*
X0283500Y0039443D01*
X0283500Y0040442D02*
X0397000Y0040442D01*
X0397000Y0041440D02*
X0283500Y0041440D01*
X0283500Y0042439D02*
X0397000Y0042439D01*
X0397000Y0043437D02*
X0283500Y0043437D01*
X0283500Y0044436D02*
X0397000Y0044436D01*
X0397000Y0045434D02*
X0283500Y0045434D01*
X0283500Y0046433D02*
X0397000Y0046433D01*
X0397000Y0047432D02*
X0344503Y0047432D01*
X0343571Y0046500D02*
X0346500Y0049429D01*
X0346500Y0053571D01*
X0343571Y0056500D01*
X0339429Y0056500D01*
X0336500Y0053571D01*
X0333571Y0056500D01*
X0329429Y0056500D01*
X0326500Y0053571D01*
X0323571Y0056500D01*
X0319429Y0056500D01*
X0316500Y0053571D01*
X0313571Y0056500D01*
X0309429Y0056500D01*
X0306500Y0053571D01*
X0303571Y0056500D01*
X0299429Y0056500D01*
X0296500Y0053571D01*
X0293571Y0056500D01*
X0289429Y0056500D01*
X0286500Y0053571D01*
X0286500Y0049429D01*
X0289429Y0046500D01*
X0293571Y0046500D01*
X0296500Y0049429D01*
X0296500Y0053571D01*
X0296500Y0049429D01*
X0299429Y0046500D01*
X0303571Y0046500D01*
X0306500Y0049429D01*
X0306500Y0053571D01*
X0306500Y0049429D01*
X0309429Y0046500D01*
X0313571Y0046500D01*
X0316500Y0049429D01*
X0316500Y0053571D01*
X0316500Y0049429D01*
X0319429Y0046500D01*
X0323571Y0046500D01*
X0326500Y0049429D01*
X0326500Y0053571D01*
X0326500Y0049429D01*
X0329429Y0046500D01*
X0333571Y0046500D01*
X0336500Y0049429D01*
X0336500Y0053571D01*
X0336500Y0049429D01*
X0339429Y0046500D01*
X0343571Y0046500D01*
X0345501Y0048430D02*
X0397000Y0048430D01*
X0397000Y0049429D02*
X0346500Y0049429D01*
X0346500Y0050427D02*
X0397000Y0050427D01*
X0397000Y0051426D02*
X0346500Y0051426D01*
X0346500Y0052424D02*
X0397000Y0052424D01*
X0397000Y0053423D02*
X0346500Y0053423D01*
X0345650Y0054421D02*
X0397000Y0054421D01*
X0397000Y0055420D02*
X0344651Y0055420D01*
X0343653Y0056418D02*
X0397000Y0056418D01*
X0397000Y0057417D02*
X0344488Y0057417D01*
X0343571Y0056500D02*
X0346500Y0059429D01*
X0346500Y0063571D01*
X0343571Y0066500D01*
X0339429Y0066500D01*
X0336500Y0063571D01*
X0333571Y0066500D01*
X0329429Y0066500D01*
X0326500Y0063571D01*
X0323571Y0066500D01*
X0319429Y0066500D01*
X0316500Y0063571D01*
X0313571Y0066500D01*
X0309429Y0066500D01*
X0306500Y0063571D01*
X0303571Y0066500D01*
X0299429Y0066500D01*
X0296500Y0063571D01*
X0293571Y0066500D01*
X0289429Y0066500D01*
X0286500Y0063571D01*
X0283571Y0066500D01*
X0279429Y0066500D01*
X0276500Y0063571D01*
X0273571Y0066500D01*
X0269429Y0066500D01*
X0266500Y0063571D01*
X0263571Y0066500D01*
X0262000Y0066500D01*
X0262000Y0062000D01*
X0261000Y0062000D01*
X0261000Y0066500D01*
X0259429Y0066500D01*
X0256500Y0063571D01*
X0256500Y0062000D01*
X0261000Y0062000D01*
X0261000Y0061000D01*
X0256500Y0061000D01*
X0256500Y0059429D01*
X0259429Y0056500D01*
X0261000Y0056500D01*
X0261000Y0061000D01*
X0262000Y0061000D01*
X0262000Y0062000D01*
X0266500Y0062000D01*
X0266500Y0063571D01*
X0266500Y0059429D01*
X0266500Y0061000D01*
X0262000Y0061000D01*
X0262000Y0056500D01*
X0263571Y0056500D01*
X0266500Y0059429D01*
X0269429Y0056500D01*
X0273571Y0056500D01*
X0276500Y0059429D01*
X0276500Y0063571D01*
X0276500Y0059429D01*
X0279429Y0056500D01*
X0283571Y0056500D01*
X0286500Y0059429D01*
X0286500Y0063571D01*
X0286500Y0059429D01*
X0289429Y0056500D01*
X0293571Y0056500D01*
X0296500Y0059429D01*
X0296500Y0063571D01*
X0296500Y0059429D01*
X0299429Y0056500D01*
X0303571Y0056500D01*
X0306500Y0059429D01*
X0306500Y0063571D01*
X0306500Y0059429D01*
X0309429Y0056500D01*
X0313571Y0056500D01*
X0316500Y0059429D01*
X0316500Y0063571D01*
X0316500Y0059429D01*
X0319429Y0056500D01*
X0323571Y0056500D01*
X0326500Y0059429D01*
X0326500Y0063571D01*
X0326500Y0059429D01*
X0329429Y0056500D01*
X0333571Y0056500D01*
X0336500Y0059429D01*
X0336500Y0063571D01*
X0336500Y0059429D01*
X0339429Y0056500D01*
X0343571Y0056500D01*
X0345486Y0058415D02*
X0397000Y0058415D01*
X0397000Y0059414D02*
X0346485Y0059414D01*
X0346500Y0060412D02*
X0397000Y0060412D01*
X0397000Y0061411D02*
X0346500Y0061411D01*
X0346500Y0062409D02*
X0397000Y0062409D01*
X0397000Y0063408D02*
X0346500Y0063408D01*
X0345665Y0064406D02*
X0397000Y0064406D01*
X0397000Y0065405D02*
X0344666Y0065405D01*
X0343668Y0066403D02*
X0397000Y0066403D01*
X0397000Y0067402D02*
X0096300Y0067402D01*
X0096300Y0068400D02*
X0397000Y0068400D01*
X0397000Y0069399D02*
X0096300Y0069399D01*
X0096300Y0070397D02*
X0397000Y0070397D01*
X0397000Y0071396D02*
X0096300Y0071396D01*
X0096300Y0071502D02*
X0098498Y0073700D01*
X0106246Y0073700D01*
X0107300Y0074754D01*
X0112046Y0079500D01*
X0112328Y0079500D01*
X0123500Y0090672D01*
X0123500Y0215820D01*
X0123590Y0215937D01*
X0123500Y0216630D01*
X0123500Y0217328D01*
X0123395Y0217433D01*
X0123376Y0217580D01*
X0122822Y0218006D01*
X0122328Y0218500D01*
X0122180Y0218500D01*
X0099500Y0235946D01*
X0099500Y0237296D01*
X0098891Y0238766D01*
X0097766Y0239891D01*
X0096296Y0240500D01*
X0094704Y0240500D01*
X0093234Y0239891D01*
X0092109Y0238766D01*
X0091500Y0237296D01*
X0091500Y0235704D01*
X0092109Y0234234D01*
X0093234Y0233109D01*
X0094704Y0232500D01*
X0096296Y0232500D01*
X0097026Y0232803D01*
X0119500Y0215515D01*
X0119500Y0092328D01*
X0109500Y0082328D01*
X0109500Y0082046D01*
X0104754Y0077300D01*
X0098498Y0077300D01*
X0096198Y0079600D01*
X0092802Y0079600D01*
X0090400Y0077198D01*
X0090400Y0073802D01*
X0092700Y0071502D01*
X0092700Y0057754D01*
X0093754Y0056700D01*
X0097400Y0053054D01*
X0097400Y0049802D01*
X0099802Y0047400D01*
X0102772Y0047400D01*
X0119500Y0030672D01*
X0119500Y0022679D01*
X0118356Y0022205D01*
X0116795Y0020644D01*
X0116495Y0019921D01*
X0116247Y0020409D01*
X0115733Y0021116D01*
X0115116Y0021733D01*
X0114409Y0022247D01*
X0113630Y0022643D01*
X0112800Y0022913D01*
X0112000Y0023040D01*
X0112000Y0018000D01*
X0111000Y0018000D01*
X0111000Y0023040D01*
X0110200Y0022913D01*
X0109370Y0022643D01*
X0108591Y0022247D01*
X0107884Y0021733D01*
X0107267Y0021116D01*
X0107050Y0020817D01*
X0107050Y0022171D01*
X0106171Y0023050D01*
X0096829Y0023050D01*
X0095950Y0022171D01*
X0095950Y0021000D01*
X0066792Y0021000D01*
X0066368Y0021425D01*
X0066368Y0026025D01*
X0065602Y0027871D01*
X0064189Y0029285D01*
X0062342Y0030050D01*
X0060343Y0030050D01*
X0058504Y0029288D01*
X0034579Y0053214D01*
X0034467Y0053483D01*
X0031000Y0056950D01*
X0031000Y0102575D01*
X0031951Y0103526D01*
X0032750Y0105456D01*
X0032750Y0107544D01*
X0031951Y0109474D01*
X0030474Y0110951D01*
X0029148Y0111500D01*
X0030474Y0112049D01*
X0031425Y0113000D01*
X0090050Y0113000D01*
X0102400Y0100650D01*
X0102400Y0099802D01*
X0104802Y0097400D01*
X0108198Y0097400D01*
X0110600Y0099802D01*
X0110600Y0103198D01*
X0108198Y0105600D01*
X0107350Y0105600D01*
X0095000Y0117950D01*
X0095000Y0130914D01*
X0095182Y0130990D01*
X0097010Y0132818D01*
X0098000Y0135207D01*
X0098000Y0137793D01*
X0097010Y0140182D01*
X0095182Y0142010D01*
X0092793Y0143000D01*
X0090207Y0143000D01*
X0087818Y0142010D01*
X0085990Y0140182D01*
X0085000Y0137793D01*
X0085000Y0135207D01*
X0085990Y0132818D01*
X0087818Y0130990D01*
X0088000Y0130914D01*
X0088000Y0120000D01*
X0031425Y0120000D01*
X0030474Y0120951D01*
X0029751Y0121250D01*
X0031871Y0121250D01*
X0032750Y0122129D01*
X0032750Y0123216D01*
X0048818Y0123885D01*
X0049656Y0123047D01*
X0053344Y0123047D01*
X0055953Y0125656D01*
X0055953Y0129344D01*
X0053344Y0131953D01*
X0049656Y0131953D01*
X0048584Y0130882D01*
X0032750Y0130222D01*
X0032750Y0130871D01*
X0031871Y0131750D01*
X0023129Y0131750D01*
X0022250Y0130871D01*
X0022250Y0122129D01*
X0023129Y0121250D01*
X0025249Y0121250D01*
X0024526Y0120951D01*
X0023049Y0119474D01*
X0022250Y0117544D01*
X0022250Y0115456D01*
X0023049Y0113526D01*
X0024526Y0112049D01*
X0025852Y0111500D01*
X0024526Y0110951D01*
X0023049Y0109474D01*
X0022250Y0107544D01*
X0022250Y0105456D01*
X0023049Y0103526D01*
X0024000Y0102575D01*
X0024000Y0054804D01*
X0024533Y0053517D01*
X0025517Y0052533D01*
X0028421Y0049629D01*
X0028533Y0049360D01*
X0029517Y0048375D01*
X0056318Y0021575D01*
X0056318Y0016975D01*
X0057083Y0015129D01*
X0058496Y0013715D01*
X0060343Y0012950D01*
X0062342Y0012950D01*
X0064189Y0013715D01*
X0064524Y0014050D01*
X0064646Y0014000D01*
X0095950Y0014000D01*
X0095950Y0012829D01*
X0096829Y0011950D01*
X0106171Y0011950D01*
X0107050Y0012829D01*
X0107050Y0014183D01*
X0107267Y0013884D01*
X0107884Y0013267D01*
X0108591Y0012753D01*
X0109370Y0012357D01*
X0110200Y0012087D01*
X0111000Y0011960D01*
X0111000Y0017000D01*
X0112000Y0017000D01*
X0112000Y0011960D01*
X0112800Y0012087D01*
X0113630Y0012357D01*
X0114409Y0012753D01*
X0115116Y0013267D01*
X0115733Y0013884D01*
X0116247Y0014591D01*
X0116495Y0015079D01*
X0116795Y0014356D01*
X0118356Y0012795D01*
X0120396Y0011950D01*
X0122604Y0011950D01*
X0124644Y0012795D01*
X0126205Y0014356D01*
X0126679Y0015500D01*
X0164672Y0015500D01*
X0169500Y0010672D01*
X0170672Y0009500D01*
X0247328Y0009500D01*
X0248270Y0010442D01*
X0248969Y0009743D01*
X0250611Y0009063D01*
X0252389Y0009063D01*
X0254031Y0009743D01*
X0255288Y0011000D01*
X0255968Y0012643D01*
X0255968Y0020357D01*
X0255288Y0022000D01*
X0254031Y0023257D01*
X0252389Y0023937D01*
X0250611Y0023937D01*
X0248969Y0023257D01*
X0247712Y0022000D01*
X0247662Y0021879D01*
X0233500Y0032500D01*
X0233500Y0050672D01*
X0242328Y0059500D01*
X0246500Y0059500D01*
X0246500Y0059429D01*
X0249429Y0056500D01*
X0253571Y0056500D01*
X0256500Y0059429D01*
X0256500Y0063571D01*
X0253571Y0066500D01*
X0249429Y0066500D01*
X0246500Y0063571D01*
X0246500Y0063500D01*
X0240672Y0063500D01*
X0239500Y0062328D01*
X0229500Y0052328D01*
X0229500Y0032167D01*
X0229403Y0032037D01*
X0229500Y0031358D01*
X0229500Y0030672D01*
X0229614Y0030557D01*
X0229637Y0030397D01*
X0230186Y0029985D01*
X0230672Y0029500D01*
X0230833Y0029500D01*
X0247031Y0017351D01*
X0247031Y0014860D01*
X0245672Y0013500D01*
X0172328Y0013500D01*
X0166328Y0019500D01*
X0126679Y0019500D01*
X0126205Y0020644D01*
X0124644Y0022205D01*
X0123500Y0022679D01*
X0123500Y0032328D01*
X0122328Y0033500D01*
X0105600Y0050228D01*
X0105600Y0053198D01*
X0103198Y0055600D01*
X0099946Y0055600D01*
X0096300Y0059246D01*
X0096300Y0071502D01*
X0097193Y0072394D02*
X0397000Y0072394D01*
X0397000Y0073393D02*
X0098191Y0073393D01*
X0098411Y0077387D02*
X0104841Y0077387D01*
X0105840Y0078385D02*
X0097413Y0078385D01*
X0096414Y0079384D02*
X0106838Y0079384D01*
X0107837Y0080382D02*
X0060600Y0080382D01*
X0060600Y0080650D02*
X0069467Y0089517D01*
X0070000Y0090804D01*
X0070000Y0099202D01*
X0070600Y0099802D01*
X0070600Y0103198D01*
X0068198Y0105600D01*
X0064802Y0105600D01*
X0062400Y0103198D01*
X0062400Y0099802D01*
X0063000Y0099202D01*
X0063000Y0092950D01*
X0055650Y0085600D01*
X0054802Y0085600D01*
X0052400Y0083198D01*
X0052400Y0079802D01*
X0054802Y0077400D01*
X0058198Y0077400D01*
X0060600Y0079802D01*
X0060600Y0080650D01*
X0061331Y0081381D02*
X0108835Y0081381D01*
X0109551Y0082379D02*
X0062329Y0082379D01*
X0063328Y0083378D02*
X0110550Y0083378D01*
X0111548Y0084376D02*
X0064326Y0084376D01*
X0065325Y0085375D02*
X0112547Y0085375D01*
X0113545Y0086373D02*
X0066323Y0086373D01*
X0067322Y0087372D02*
X0114544Y0087372D01*
X0115542Y0088370D02*
X0068320Y0088370D01*
X0069319Y0089369D02*
X0116541Y0089369D01*
X0117539Y0090368D02*
X0069819Y0090368D01*
X0070000Y0091366D02*
X0118538Y0091366D01*
X0119500Y0092365D02*
X0070000Y0092365D01*
X0070000Y0093363D02*
X0119500Y0093363D01*
X0119500Y0094362D02*
X0070000Y0094362D01*
X0070000Y0095360D02*
X0119500Y0095360D01*
X0119500Y0096359D02*
X0070000Y0096359D01*
X0070000Y0097357D02*
X0119500Y0097357D01*
X0119500Y0098356D02*
X0109154Y0098356D01*
X0110152Y0099354D02*
X0119500Y0099354D01*
X0119500Y0100353D02*
X0110600Y0100353D01*
X0110600Y0101351D02*
X0119500Y0101351D01*
X0119500Y0102350D02*
X0110600Y0102350D01*
X0110450Y0103348D02*
X0119500Y0103348D01*
X0119500Y0104347D02*
X0109452Y0104347D01*
X0108453Y0105345D02*
X0119500Y0105345D01*
X0119500Y0106344D02*
X0106606Y0106344D01*
X0105608Y0107342D02*
X0119500Y0107342D01*
X0119500Y0108341D02*
X0104609Y0108341D01*
X0103611Y0109339D02*
X0119500Y0109339D01*
X0119500Y0110338D02*
X0102612Y0110338D01*
X0101613Y0111336D02*
X0119500Y0111336D01*
X0119500Y0112335D02*
X0100615Y0112335D01*
X0099616Y0113333D02*
X0119500Y0113333D01*
X0119500Y0114332D02*
X0098618Y0114332D01*
X0097619Y0115330D02*
X0119500Y0115330D01*
X0119500Y0116329D02*
X0096621Y0116329D01*
X0095622Y0117327D02*
X0119500Y0117327D01*
X0119500Y0118326D02*
X0095000Y0118326D01*
X0095000Y0119324D02*
X0119500Y0119324D01*
X0119500Y0120323D02*
X0095000Y0120323D01*
X0095000Y0121321D02*
X0119500Y0121321D01*
X0119500Y0122320D02*
X0095000Y0122320D01*
X0095000Y0123318D02*
X0119500Y0123318D01*
X0119500Y0124317D02*
X0095000Y0124317D01*
X0095000Y0125315D02*
X0119500Y0125315D01*
X0119500Y0126314D02*
X0095000Y0126314D01*
X0095000Y0127312D02*
X0119500Y0127312D01*
X0119500Y0128311D02*
X0095000Y0128311D01*
X0095000Y0129309D02*
X0119500Y0129309D01*
X0119500Y0130308D02*
X0095000Y0130308D01*
X0095499Y0131306D02*
X0119500Y0131306D01*
X0119500Y0132305D02*
X0096497Y0132305D01*
X0097212Y0133303D02*
X0119500Y0133303D01*
X0119500Y0134302D02*
X0097625Y0134302D01*
X0098000Y0135301D02*
X0119500Y0135301D01*
X0119500Y0136299D02*
X0098000Y0136299D01*
X0098000Y0137298D02*
X0119500Y0137298D01*
X0119500Y0138296D02*
X0097792Y0138296D01*
X0097378Y0139295D02*
X0119500Y0139295D01*
X0119500Y0140293D02*
X0096899Y0140293D01*
X0095901Y0141292D02*
X0119500Y0141292D01*
X0119500Y0142290D02*
X0094507Y0142290D01*
X0088493Y0142290D02*
X0074902Y0142290D01*
X0074192Y0143000D02*
X0072000Y0143000D01*
X0072000Y0137000D01*
X0078000Y0137000D01*
X0078000Y0139192D01*
X0074192Y0143000D01*
X0072000Y0142290D02*
X0071000Y0142290D01*
X0071000Y0143000D02*
X0068808Y0143000D01*
X0065000Y0139192D01*
X0065000Y0137000D01*
X0071000Y0137000D01*
X0071000Y0143000D01*
X0071000Y0141292D02*
X0072000Y0141292D01*
X0072000Y0140293D02*
X0071000Y0140293D01*
X0071000Y0139295D02*
X0072000Y0139295D01*
X0072000Y0138296D02*
X0071000Y0138296D01*
X0071000Y0137298D02*
X0072000Y0137298D01*
X0072000Y0137000D02*
X0071000Y0137000D01*
X0071000Y0136000D01*
X0072000Y0136000D01*
X0072000Y0137000D01*
X0072000Y0136299D02*
X0085000Y0136299D01*
X0085000Y0135301D02*
X0078000Y0135301D01*
X0078000Y0136000D02*
X0072000Y0136000D01*
X0072000Y0130000D01*
X0074192Y0130000D01*
X0078000Y0133808D01*
X0078000Y0136000D01*
X0078000Y0137298D02*
X0085000Y0137298D01*
X0085208Y0138296D02*
X0078000Y0138296D01*
X0077898Y0139295D02*
X0085622Y0139295D01*
X0086101Y0140293D02*
X0076899Y0140293D01*
X0075901Y0141292D02*
X0087099Y0141292D01*
X0085375Y0134302D02*
X0078000Y0134302D01*
X0077496Y0133303D02*
X0085788Y0133303D01*
X0086503Y0132305D02*
X0076497Y0132305D01*
X0075499Y0131306D02*
X0087501Y0131306D01*
X0088000Y0130308D02*
X0074500Y0130308D01*
X0072000Y0130308D02*
X0071000Y0130308D01*
X0071000Y0130000D02*
X0071000Y0136000D01*
X0065000Y0136000D01*
X0065000Y0133808D01*
X0068808Y0130000D01*
X0071000Y0130000D01*
X0071000Y0131306D02*
X0072000Y0131306D01*
X0072000Y0132305D02*
X0071000Y0132305D01*
X0071000Y0133303D02*
X0072000Y0133303D01*
X0072000Y0134302D02*
X0071000Y0134302D01*
X0071000Y0135301D02*
X0072000Y0135301D01*
X0071000Y0136299D02*
X0006000Y0136299D01*
X0006000Y0135301D02*
X0065000Y0135301D01*
X0065000Y0134302D02*
X0006000Y0134302D01*
X0006000Y0133303D02*
X0065504Y0133303D01*
X0066503Y0132305D02*
X0006000Y0132305D01*
X0006000Y0131306D02*
X0022685Y0131306D01*
X0022250Y0130308D02*
X0006000Y0130308D01*
X0006000Y0129309D02*
X0022250Y0129309D01*
X0022250Y0128311D02*
X0006000Y0128311D01*
X0006000Y0127312D02*
X0022250Y0127312D01*
X0022250Y0126314D02*
X0006000Y0126314D01*
X0006000Y0125315D02*
X0022250Y0125315D01*
X0022250Y0124317D02*
X0006000Y0124317D01*
X0006000Y0123318D02*
X0022250Y0123318D01*
X0022250Y0122320D02*
X0006000Y0122320D01*
X0006000Y0121321D02*
X0023057Y0121321D01*
X0023898Y0120323D02*
X0006000Y0120323D01*
X0006000Y0119324D02*
X0022987Y0119324D01*
X0022574Y0118326D02*
X0006000Y0118326D01*
X0006000Y0117327D02*
X0022250Y0117327D01*
X0022250Y0116329D02*
X0006000Y0116329D01*
X0006000Y0115330D02*
X0022302Y0115330D01*
X0022716Y0114332D02*
X0006000Y0114332D01*
X0006000Y0113333D02*
X0023242Y0113333D01*
X0024241Y0112335D02*
X0006000Y0112335D01*
X0006000Y0111336D02*
X0025457Y0111336D01*
X0023913Y0110338D02*
X0006000Y0110338D01*
X0006000Y0109339D02*
X0022993Y0109339D01*
X0022580Y0108341D02*
X0006000Y0108341D01*
X0006000Y0107342D02*
X0022250Y0107342D01*
X0022250Y0106344D02*
X0006000Y0106344D01*
X0006000Y0105345D02*
X0022296Y0105345D01*
X0022709Y0104347D02*
X0006000Y0104347D01*
X0006000Y0103348D02*
X0023227Y0103348D01*
X0024000Y0102350D02*
X0006000Y0102350D01*
X0006000Y0101351D02*
X0024000Y0101351D01*
X0024000Y0100353D02*
X0006000Y0100353D01*
X0006000Y0099354D02*
X0024000Y0099354D01*
X0024000Y0098356D02*
X0006000Y0098356D01*
X0006000Y0097357D02*
X0024000Y0097357D01*
X0024000Y0096359D02*
X0006000Y0096359D01*
X0006000Y0095360D02*
X0024000Y0095360D01*
X0024000Y0094362D02*
X0006000Y0094362D01*
X0006000Y0093363D02*
X0024000Y0093363D01*
X0024000Y0092365D02*
X0006000Y0092365D01*
X0006000Y0091366D02*
X0024000Y0091366D01*
X0024000Y0090368D02*
X0006000Y0090368D01*
X0006000Y0089369D02*
X0024000Y0089369D01*
X0024000Y0088370D02*
X0006000Y0088370D01*
X0006000Y0087372D02*
X0024000Y0087372D01*
X0024000Y0086373D02*
X0006000Y0086373D01*
X0006000Y0085375D02*
X0014577Y0085375D01*
X0014802Y0085600D02*
X0012400Y0083198D01*
X0012400Y0081800D01*
X0016200Y0081800D01*
X0016200Y0085600D01*
X0014802Y0085600D01*
X0016200Y0085375D02*
X0016800Y0085375D01*
X0016800Y0085600D02*
X0018198Y0085600D01*
X0020600Y0083198D01*
X0020600Y0081800D01*
X0016800Y0081800D01*
X0016800Y0081200D01*
X0020600Y0081200D01*
X0020600Y0079802D01*
X0018198Y0077400D01*
X0016800Y0077400D01*
X0016800Y0081200D01*
X0016200Y0081200D01*
X0016200Y0077400D01*
X0014802Y0077400D01*
X0012400Y0079802D01*
X0012400Y0081200D01*
X0016200Y0081200D01*
X0016200Y0081800D01*
X0016800Y0081800D01*
X0016800Y0085600D01*
X0016800Y0084376D02*
X0016200Y0084376D01*
X0016200Y0083378D02*
X0016800Y0083378D01*
X0016800Y0082379D02*
X0016200Y0082379D01*
X0016200Y0081381D02*
X0006000Y0081381D01*
X0006000Y0082379D02*
X0012400Y0082379D01*
X0012580Y0083378D02*
X0006000Y0083378D01*
X0006000Y0084376D02*
X0013578Y0084376D01*
X0016800Y0081381D02*
X0024000Y0081381D01*
X0024000Y0082379D02*
X0020600Y0082379D01*
X0020420Y0083378D02*
X0024000Y0083378D01*
X0024000Y0084376D02*
X0019422Y0084376D01*
X0018423Y0085375D02*
X0024000Y0085375D01*
X0024000Y0080382D02*
X0020600Y0080382D01*
X0020182Y0079384D02*
X0024000Y0079384D01*
X0024000Y0078385D02*
X0019184Y0078385D01*
X0016800Y0078385D02*
X0016200Y0078385D01*
X0016200Y0079384D02*
X0016800Y0079384D01*
X0016800Y0080382D02*
X0016200Y0080382D01*
X0013816Y0078385D02*
X0006000Y0078385D01*
X0006000Y0077387D02*
X0024000Y0077387D01*
X0024000Y0076388D02*
X0006000Y0076388D01*
X0006000Y0075390D02*
X0024000Y0075390D01*
X0024000Y0074391D02*
X0006000Y0074391D01*
X0006000Y0073393D02*
X0024000Y0073393D01*
X0024000Y0072394D02*
X0006000Y0072394D01*
X0006000Y0071396D02*
X0024000Y0071396D01*
X0024000Y0070397D02*
X0006000Y0070397D01*
X0006000Y0069399D02*
X0024000Y0069399D01*
X0024000Y0068400D02*
X0006000Y0068400D01*
X0006000Y0067402D02*
X0024000Y0067402D01*
X0024000Y0066403D02*
X0006000Y0066403D01*
X0006000Y0065405D02*
X0024000Y0065405D01*
X0024000Y0064406D02*
X0006000Y0064406D01*
X0006000Y0063408D02*
X0024000Y0063408D01*
X0024000Y0062409D02*
X0006000Y0062409D01*
X0006000Y0061411D02*
X0024000Y0061411D01*
X0024000Y0060412D02*
X0006000Y0060412D01*
X0006000Y0059414D02*
X0024000Y0059414D01*
X0024000Y0058415D02*
X0006000Y0058415D01*
X0006000Y0057417D02*
X0024000Y0057417D01*
X0024000Y0056418D02*
X0006000Y0056418D01*
X0006000Y0055420D02*
X0024000Y0055420D01*
X0024159Y0054421D02*
X0006000Y0054421D01*
X0006000Y0053423D02*
X0024628Y0053423D01*
X0025626Y0052424D02*
X0006000Y0052424D01*
X0006000Y0051426D02*
X0026625Y0051426D01*
X0027623Y0050427D02*
X0006000Y0050427D01*
X0006000Y0049429D02*
X0028504Y0049429D01*
X0029463Y0048430D02*
X0006000Y0048430D01*
X0006000Y0047432D02*
X0030461Y0047432D01*
X0031460Y0046433D02*
X0006000Y0046433D01*
X0006000Y0045434D02*
X0032458Y0045434D01*
X0033457Y0044436D02*
X0006000Y0044436D01*
X0006000Y0043437D02*
X0034455Y0043437D01*
X0035454Y0042439D02*
X0006000Y0042439D01*
X0006000Y0041440D02*
X0036452Y0041440D01*
X0037451Y0040442D02*
X0006000Y0040442D01*
X0006000Y0039443D02*
X0038449Y0039443D01*
X0039448Y0038445D02*
X0006000Y0038445D01*
X0006000Y0037446D02*
X0040446Y0037446D01*
X0041445Y0036448D02*
X0006000Y0036448D01*
X0006000Y0035449D02*
X0042443Y0035449D01*
X0043442Y0034451D02*
X0006000Y0034451D01*
X0006000Y0033452D02*
X0044440Y0033452D01*
X0045439Y0032454D02*
X0006000Y0032454D01*
X0006000Y0031455D02*
X0046437Y0031455D01*
X0047436Y0030457D02*
X0006000Y0030457D01*
X0006000Y0029458D02*
X0039290Y0029458D01*
X0039024Y0029323D02*
X0038384Y0028858D01*
X0037825Y0028299D01*
X0037360Y0027659D01*
X0037001Y0026954D01*
X0036756Y0026202D01*
X0036632Y0025420D01*
X0036632Y0022000D01*
X0041157Y0022000D01*
X0041157Y0021000D01*
X0036632Y0021000D01*
X0036632Y0017580D01*
X0036756Y0016798D01*
X0037001Y0016046D01*
X0037360Y0015341D01*
X0037825Y0014701D01*
X0038384Y0014142D01*
X0039024Y0013677D01*
X0039729Y0013318D01*
X0040481Y0013074D01*
X0041157Y0012967D01*
X0041157Y0021000D01*
X0042157Y0021000D01*
X0042157Y0012967D01*
X0042834Y0013074D01*
X0043586Y0013318D01*
X0044291Y0013677D01*
X0044931Y0014142D01*
X0045490Y0014701D01*
X0045955Y0015341D01*
X0046314Y0016046D01*
X0046559Y0016798D01*
X0046682Y0017580D01*
X0046682Y0021000D01*
X0042158Y0021000D01*
X0042158Y0022000D01*
X0046682Y0022000D01*
X0046682Y0025420D01*
X0046559Y0026202D01*
X0046314Y0026954D01*
X0045955Y0027659D01*
X0045490Y0028299D01*
X0044931Y0028858D01*
X0044291Y0029323D01*
X0043586Y0029682D01*
X0042834Y0029926D01*
X0042157Y0030033D01*
X0042157Y0022000D01*
X0041157Y0022000D01*
X0041157Y0030033D01*
X0040481Y0029926D01*
X0039729Y0029682D01*
X0039024Y0029323D01*
X0037986Y0028460D02*
X0006000Y0028460D01*
X0006000Y0027461D02*
X0037259Y0027461D01*
X0036841Y0026463D02*
X0006000Y0026463D01*
X0006000Y0025464D02*
X0036639Y0025464D01*
X0036632Y0024466D02*
X0006000Y0024466D01*
X0006000Y0023467D02*
X0036632Y0023467D01*
X0036632Y0022469D02*
X0006000Y0022469D01*
X0006000Y0021470D02*
X0041157Y0021470D01*
X0041157Y0020472D02*
X0042157Y0020472D01*
X0042158Y0021470D02*
X0056318Y0021470D01*
X0056318Y0020472D02*
X0046682Y0020472D01*
X0046682Y0019473D02*
X0056318Y0019473D01*
X0056318Y0018475D02*
X0046682Y0018475D01*
X0046666Y0017476D02*
X0056318Y0017476D01*
X0056524Y0016478D02*
X0046455Y0016478D01*
X0046025Y0015479D02*
X0056937Y0015479D01*
X0057730Y0014481D02*
X0045270Y0014481D01*
X0043908Y0013482D02*
X0059058Y0013482D01*
X0063627Y0013482D02*
X0095950Y0013482D01*
X0096295Y0012484D02*
X0020000Y0012484D01*
X0020000Y0011485D02*
X0168686Y0011485D01*
X0167688Y0012484D02*
X0123892Y0012484D01*
X0125331Y0013482D02*
X0166689Y0013482D01*
X0165691Y0014481D02*
X0126257Y0014481D01*
X0126670Y0015479D02*
X0164692Y0015479D01*
X0165500Y0017500D02*
X0171500Y0011500D01*
X0246500Y0011500D01*
X0251500Y0016500D01*
X0231500Y0031500D01*
X0231500Y0051500D01*
X0241500Y0061500D01*
X0251500Y0061500D01*
X0256500Y0061411D02*
X0261000Y0061411D01*
X0261000Y0062409D02*
X0262000Y0062409D01*
X0262000Y0061411D02*
X0266500Y0061411D01*
X0266500Y0062409D02*
X0266500Y0062409D01*
X0266500Y0063408D02*
X0266500Y0063408D01*
X0265665Y0064406D02*
X0267335Y0064406D01*
X0268334Y0065405D02*
X0264666Y0065405D01*
X0263668Y0066403D02*
X0269332Y0066403D01*
X0273668Y0066403D02*
X0279332Y0066403D01*
X0278334Y0065405D02*
X0274666Y0065405D01*
X0275665Y0064406D02*
X0277335Y0064406D01*
X0276500Y0063408D02*
X0276500Y0063408D01*
X0276500Y0062409D02*
X0276500Y0062409D01*
X0276500Y0061411D02*
X0276500Y0061411D01*
X0276500Y0060412D02*
X0276500Y0060412D01*
X0276485Y0059414D02*
X0276515Y0059414D01*
X0277514Y0058415D02*
X0275486Y0058415D01*
X0274488Y0057417D02*
X0278512Y0057417D01*
X0279347Y0056418D02*
X0273653Y0056418D01*
X0274651Y0055420D02*
X0278349Y0055420D01*
X0277350Y0054421D02*
X0275650Y0054421D01*
X0276500Y0053423D02*
X0276500Y0053423D01*
X0276500Y0052424D02*
X0276500Y0052424D01*
X0276500Y0051426D02*
X0276500Y0051426D01*
X0276500Y0050427D02*
X0276500Y0050427D01*
X0276500Y0049429D02*
X0276500Y0049429D01*
X0275501Y0048430D02*
X0277499Y0048430D01*
X0278497Y0047432D02*
X0274503Y0047432D01*
X0273500Y0046433D02*
X0279500Y0046433D01*
X0279500Y0045434D02*
X0273500Y0045434D01*
X0273500Y0044436D02*
X0279500Y0044436D01*
X0279500Y0043437D02*
X0273500Y0043437D01*
X0273500Y0042439D02*
X0279500Y0042439D01*
X0279500Y0041440D02*
X0273500Y0041440D01*
X0273500Y0040442D02*
X0279500Y0040442D01*
X0279500Y0039443D02*
X0273500Y0039443D01*
X0273500Y0038445D02*
X0279500Y0038445D01*
X0279500Y0037446D02*
X0273500Y0037446D01*
X0273500Y0036448D02*
X0279500Y0036448D01*
X0279500Y0035449D02*
X0273500Y0035449D01*
X0273500Y0034451D02*
X0279500Y0034451D01*
X0279500Y0033452D02*
X0273500Y0033452D01*
X0273500Y0032454D02*
X0279500Y0032454D01*
X0279500Y0031455D02*
X0273500Y0031455D01*
X0273500Y0030457D02*
X0279500Y0030457D01*
X0279500Y0029458D02*
X0273500Y0029458D01*
X0273500Y0028460D02*
X0279500Y0028460D01*
X0279500Y0027461D02*
X0273500Y0027461D01*
X0273500Y0026463D02*
X0279500Y0026463D01*
X0279500Y0025464D02*
X0273500Y0025464D01*
X0273500Y0024466D02*
X0279500Y0024466D01*
X0279477Y0023467D02*
X0273523Y0023467D01*
X0274819Y0022469D02*
X0278181Y0022469D01*
X0277492Y0021470D02*
X0275508Y0021470D01*
X0275921Y0020472D02*
X0277079Y0020472D01*
X0277031Y0019473D02*
X0275968Y0019473D01*
X0275968Y0018475D02*
X0277031Y0018475D01*
X0277031Y0017476D02*
X0275968Y0017476D01*
X0275968Y0016478D02*
X0277031Y0016478D01*
X0277031Y0015479D02*
X0275968Y0015479D01*
X0275968Y0014481D02*
X0277031Y0014481D01*
X0277031Y0013482D02*
X0275968Y0013482D01*
X0275903Y0012484D02*
X0277097Y0012484D01*
X0277511Y0011485D02*
X0275489Y0011485D01*
X0274775Y0010487D02*
X0278225Y0010487D01*
X0279585Y0009488D02*
X0273415Y0009488D01*
X0269585Y0009488D02*
X0263407Y0009488D01*
X0263215Y0009390D02*
X0263842Y0009710D01*
X0264411Y0010123D01*
X0264908Y0010620D01*
X0265322Y0011189D01*
X0265641Y0011816D01*
X0265858Y0012485D01*
X0265968Y0013180D01*
X0265968Y0016016D01*
X0261984Y0016016D01*
X0261984Y0009084D01*
X0262546Y0009173D01*
X0263215Y0009390D01*
X0261984Y0009488D02*
X0261016Y0009488D01*
X0261016Y0009084D02*
X0261016Y0016016D01*
X0261984Y0016016D01*
X0261984Y0016984D01*
X0265968Y0016984D01*
X0265968Y0019820D01*
X0265858Y0020515D01*
X0265641Y0021184D01*
X0265322Y0021811D01*
X0264908Y0022380D01*
X0264411Y0022877D01*
X0263842Y0023290D01*
X0263215Y0023610D01*
X0262546Y0023827D01*
X0261984Y0023916D01*
X0261984Y0016984D01*
X0261016Y0016984D01*
X0261016Y0016016D01*
X0257031Y0016016D01*
X0257031Y0013180D01*
X0257142Y0012485D01*
X0257359Y0011816D01*
X0257678Y0011189D01*
X0258092Y0010620D01*
X0258589Y0010123D01*
X0259158Y0009710D01*
X0259785Y0009390D01*
X0260454Y0009173D01*
X0261016Y0009084D01*
X0261016Y0010487D02*
X0261984Y0010487D01*
X0261984Y0011485D02*
X0261016Y0011485D01*
X0261016Y0012484D02*
X0261984Y0012484D01*
X0261984Y0013482D02*
X0261016Y0013482D01*
X0261016Y0014481D02*
X0261984Y0014481D01*
X0261984Y0015479D02*
X0261016Y0015479D01*
X0261016Y0016478D02*
X0255968Y0016478D01*
X0255968Y0017476D02*
X0257031Y0017476D01*
X0257031Y0016984D02*
X0261016Y0016984D01*
X0261016Y0023916D01*
X0260454Y0023827D01*
X0259785Y0023610D01*
X0259158Y0023290D01*
X0258589Y0022877D01*
X0258092Y0022380D01*
X0257678Y0021811D01*
X0257359Y0021184D01*
X0257142Y0020515D01*
X0257031Y0019820D01*
X0257031Y0016984D01*
X0257031Y0018475D02*
X0255968Y0018475D01*
X0255968Y0019473D02*
X0257031Y0019473D01*
X0257135Y0020472D02*
X0255921Y0020472D01*
X0255508Y0021470D02*
X0257505Y0021470D01*
X0258181Y0022469D02*
X0254819Y0022469D01*
X0253523Y0023467D02*
X0259505Y0023467D01*
X0261016Y0023467D02*
X0261984Y0023467D01*
X0261984Y0022469D02*
X0261016Y0022469D01*
X0261016Y0021470D02*
X0261984Y0021470D01*
X0261984Y0020472D02*
X0261016Y0020472D01*
X0261016Y0019473D02*
X0261984Y0019473D01*
X0261984Y0018475D02*
X0261016Y0018475D01*
X0261016Y0017476D02*
X0261984Y0017476D01*
X0261984Y0016478D02*
X0267031Y0016478D01*
X0267031Y0017476D02*
X0265968Y0017476D01*
X0265968Y0018475D02*
X0267031Y0018475D01*
X0267031Y0019473D02*
X0265968Y0019473D01*
X0265865Y0020472D02*
X0267079Y0020472D01*
X0267492Y0021470D02*
X0265495Y0021470D01*
X0264819Y0022469D02*
X0268181Y0022469D01*
X0269477Y0023467D02*
X0263495Y0023467D01*
X0269500Y0024466D02*
X0244212Y0024466D01*
X0242881Y0025464D02*
X0269500Y0025464D01*
X0269500Y0026463D02*
X0241550Y0026463D01*
X0240218Y0027461D02*
X0269500Y0027461D01*
X0269500Y0028460D02*
X0238887Y0028460D01*
X0237556Y0029458D02*
X0269500Y0029458D01*
X0269500Y0030457D02*
X0236224Y0030457D01*
X0234893Y0031455D02*
X0269500Y0031455D01*
X0269500Y0032454D02*
X0233562Y0032454D01*
X0233500Y0033452D02*
X0269500Y0033452D01*
X0269500Y0034451D02*
X0233500Y0034451D01*
X0233500Y0035449D02*
X0269500Y0035449D01*
X0269500Y0036448D02*
X0233500Y0036448D01*
X0233500Y0037446D02*
X0269500Y0037446D01*
X0269500Y0038445D02*
X0233500Y0038445D01*
X0233500Y0039443D02*
X0269500Y0039443D01*
X0269500Y0040442D02*
X0233500Y0040442D01*
X0233500Y0041440D02*
X0269500Y0041440D01*
X0269500Y0042439D02*
X0233500Y0042439D01*
X0233500Y0043437D02*
X0269500Y0043437D01*
X0269500Y0044436D02*
X0233500Y0044436D01*
X0233500Y0045434D02*
X0269500Y0045434D01*
X0269500Y0046433D02*
X0233500Y0046433D01*
X0233500Y0047432D02*
X0248497Y0047432D01*
X0249429Y0046500D02*
X0253571Y0046500D01*
X0256500Y0049429D01*
X0256500Y0053571D01*
X0253571Y0056500D01*
X0249429Y0056500D01*
X0246500Y0053571D01*
X0246500Y0049429D01*
X0249429Y0046500D01*
X0247499Y0048430D02*
X0233500Y0048430D01*
X0233500Y0049429D02*
X0246500Y0049429D01*
X0246500Y0050427D02*
X0233500Y0050427D01*
X0234254Y0051426D02*
X0246500Y0051426D01*
X0246500Y0052424D02*
X0235252Y0052424D01*
X0236251Y0053423D02*
X0246500Y0053423D01*
X0247350Y0054421D02*
X0237250Y0054421D01*
X0238248Y0055420D02*
X0248349Y0055420D01*
X0249347Y0056418D02*
X0239247Y0056418D01*
X0240245Y0057417D02*
X0248512Y0057417D01*
X0247514Y0058415D02*
X0241244Y0058415D01*
X0242242Y0059414D02*
X0246515Y0059414D01*
X0253653Y0056418D02*
X0259347Y0056418D01*
X0259429Y0056500D02*
X0256500Y0053571D01*
X0256500Y0049429D01*
X0259429Y0046500D01*
X0263571Y0046500D01*
X0266500Y0049429D01*
X0266500Y0053571D01*
X0263571Y0056500D01*
X0259429Y0056500D01*
X0258512Y0057417D02*
X0254488Y0057417D01*
X0255486Y0058415D02*
X0257514Y0058415D01*
X0256515Y0059414D02*
X0256485Y0059414D01*
X0256500Y0060412D02*
X0256500Y0060412D01*
X0256500Y0062409D02*
X0256500Y0062409D01*
X0256500Y0063408D02*
X0256500Y0063408D01*
X0255665Y0064406D02*
X0257335Y0064406D01*
X0258334Y0065405D02*
X0254666Y0065405D01*
X0253668Y0066403D02*
X0259332Y0066403D01*
X0261000Y0066403D02*
X0262000Y0066403D01*
X0262000Y0065405D02*
X0261000Y0065405D01*
X0261000Y0064406D02*
X0262000Y0064406D01*
X0262000Y0063408D02*
X0261000Y0063408D01*
X0261000Y0060412D02*
X0262000Y0060412D01*
X0262000Y0059414D02*
X0261000Y0059414D01*
X0261000Y0058415D02*
X0262000Y0058415D01*
X0262000Y0057417D02*
X0261000Y0057417D01*
X0263653Y0056418D02*
X0269347Y0056418D01*
X0268512Y0057417D02*
X0264488Y0057417D01*
X0265486Y0058415D02*
X0267514Y0058415D01*
X0266515Y0059414D02*
X0266485Y0059414D01*
X0266500Y0060412D02*
X0266500Y0060412D01*
X0264651Y0055420D02*
X0268349Y0055420D01*
X0267350Y0054421D02*
X0265650Y0054421D01*
X0266500Y0053423D02*
X0266500Y0053423D01*
X0266500Y0052424D02*
X0266500Y0052424D01*
X0266500Y0051426D02*
X0266500Y0051426D01*
X0266500Y0050427D02*
X0266500Y0050427D01*
X0266500Y0049429D02*
X0266500Y0049429D01*
X0265501Y0048430D02*
X0267499Y0048430D01*
X0268497Y0047432D02*
X0264503Y0047432D01*
X0258497Y0047432D02*
X0254503Y0047432D01*
X0255501Y0048430D02*
X0257499Y0048430D01*
X0256500Y0049429D02*
X0256500Y0049429D01*
X0256500Y0050427D02*
X0256500Y0050427D01*
X0256500Y0051426D02*
X0256500Y0051426D01*
X0256500Y0052424D02*
X0256500Y0052424D01*
X0256500Y0053423D02*
X0256500Y0053423D01*
X0255650Y0054421D02*
X0257350Y0054421D01*
X0258349Y0055420D02*
X0254651Y0055420D01*
X0247335Y0064406D02*
X0096300Y0064406D01*
X0096300Y0063408D02*
X0240579Y0063408D01*
X0239581Y0062409D02*
X0096300Y0062409D01*
X0096300Y0061411D02*
X0238582Y0061411D01*
X0237584Y0060412D02*
X0096300Y0060412D01*
X0096300Y0059414D02*
X0236585Y0059414D01*
X0235587Y0058415D02*
X0097130Y0058415D01*
X0098129Y0057417D02*
X0234588Y0057417D01*
X0233590Y0056418D02*
X0099127Y0056418D01*
X0097032Y0053423D02*
X0085376Y0053423D01*
X0085600Y0053198D02*
X0083198Y0055600D01*
X0081800Y0055600D01*
X0081800Y0051800D01*
X0085600Y0051800D01*
X0085600Y0053198D01*
X0085600Y0052424D02*
X0097400Y0052424D01*
X0097400Y0051426D02*
X0081800Y0051426D01*
X0081800Y0051200D02*
X0081800Y0051800D01*
X0081200Y0051800D01*
X0081200Y0055600D01*
X0079802Y0055600D01*
X0077400Y0053198D01*
X0077400Y0051800D01*
X0081200Y0051800D01*
X0081200Y0051200D01*
X0081800Y0051200D01*
X0085600Y0051200D01*
X0085600Y0049802D01*
X0083198Y0047400D01*
X0081800Y0047400D01*
X0081800Y0051200D01*
X0081200Y0051200D02*
X0081200Y0047400D01*
X0079802Y0047400D01*
X0077400Y0049802D01*
X0077400Y0051200D01*
X0081200Y0051200D01*
X0081200Y0051426D02*
X0036367Y0051426D01*
X0035368Y0052424D02*
X0077400Y0052424D01*
X0077624Y0053423D02*
X0034492Y0053423D01*
X0033529Y0054421D02*
X0078623Y0054421D01*
X0079621Y0055420D02*
X0032530Y0055420D01*
X0031532Y0056418D02*
X0094036Y0056418D01*
X0093038Y0057417D02*
X0031000Y0057417D01*
X0031000Y0058415D02*
X0092700Y0058415D01*
X0092700Y0059414D02*
X0031000Y0059414D01*
X0031000Y0060412D02*
X0092700Y0060412D01*
X0092700Y0061411D02*
X0031000Y0061411D01*
X0031000Y0062409D02*
X0092700Y0062409D01*
X0092700Y0063408D02*
X0031000Y0063408D01*
X0031000Y0064406D02*
X0092700Y0064406D01*
X0092700Y0065405D02*
X0031000Y0065405D01*
X0031000Y0066403D02*
X0092700Y0066403D01*
X0092700Y0067402D02*
X0031000Y0067402D01*
X0031000Y0068400D02*
X0092700Y0068400D01*
X0092700Y0069399D02*
X0031000Y0069399D01*
X0031000Y0070397D02*
X0092700Y0070397D01*
X0092700Y0071396D02*
X0031000Y0071396D01*
X0031000Y0072394D02*
X0071807Y0072394D01*
X0072802Y0071400D02*
X0070400Y0073802D01*
X0070400Y0075200D01*
X0074200Y0075200D01*
X0074800Y0075200D01*
X0074800Y0075800D01*
X0078600Y0075800D01*
X0078600Y0077198D01*
X0076198Y0079600D01*
X0074800Y0079600D01*
X0074800Y0075800D01*
X0074200Y0075800D01*
X0074200Y0079600D01*
X0072802Y0079600D01*
X0070400Y0077198D01*
X0070400Y0075800D01*
X0074200Y0075800D01*
X0074200Y0075200D01*
X0074200Y0071400D01*
X0072802Y0071400D01*
X0074200Y0072394D02*
X0074800Y0072394D01*
X0074800Y0071400D02*
X0076198Y0071400D01*
X0078600Y0073802D01*
X0078600Y0075200D01*
X0074800Y0075200D01*
X0074800Y0071400D01*
X0074800Y0073393D02*
X0074200Y0073393D01*
X0074200Y0074391D02*
X0074800Y0074391D01*
X0074800Y0075390D02*
X0090400Y0075390D01*
X0090400Y0076388D02*
X0078600Y0076388D01*
X0078411Y0077387D02*
X0090589Y0077387D01*
X0091587Y0078385D02*
X0077413Y0078385D01*
X0076414Y0079384D02*
X0092586Y0079384D01*
X0090400Y0074391D02*
X0078600Y0074391D01*
X0078191Y0073393D02*
X0090809Y0073393D01*
X0091807Y0072394D02*
X0077193Y0072394D01*
X0074200Y0075390D02*
X0031000Y0075390D01*
X0031000Y0076388D02*
X0070400Y0076388D01*
X0070589Y0077387D02*
X0031000Y0077387D01*
X0031000Y0078385D02*
X0053816Y0078385D01*
X0052818Y0079384D02*
X0031000Y0079384D01*
X0031000Y0080382D02*
X0052400Y0080382D01*
X0052400Y0081381D02*
X0031000Y0081381D01*
X0031000Y0082379D02*
X0052400Y0082379D01*
X0052580Y0083378D02*
X0031000Y0083378D01*
X0031000Y0084376D02*
X0053578Y0084376D01*
X0054577Y0085375D02*
X0031000Y0085375D01*
X0031000Y0086373D02*
X0056424Y0086373D01*
X0057422Y0087372D02*
X0031000Y0087372D01*
X0031000Y0088370D02*
X0058421Y0088370D01*
X0059419Y0089369D02*
X0031000Y0089369D01*
X0031000Y0090368D02*
X0060418Y0090368D01*
X0061416Y0091366D02*
X0031000Y0091366D01*
X0031000Y0092365D02*
X0062415Y0092365D01*
X0063000Y0093363D02*
X0031000Y0093363D01*
X0031000Y0094362D02*
X0063000Y0094362D01*
X0063000Y0095360D02*
X0031000Y0095360D01*
X0031000Y0096359D02*
X0063000Y0096359D01*
X0063000Y0097357D02*
X0031000Y0097357D01*
X0031000Y0098356D02*
X0063000Y0098356D01*
X0062848Y0099354D02*
X0031000Y0099354D01*
X0031000Y0100353D02*
X0062400Y0100353D01*
X0062400Y0101351D02*
X0031000Y0101351D01*
X0031000Y0102350D02*
X0062400Y0102350D01*
X0062550Y0103348D02*
X0031773Y0103348D01*
X0032291Y0104347D02*
X0063548Y0104347D01*
X0064547Y0105345D02*
X0032704Y0105345D01*
X0032750Y0106344D02*
X0096707Y0106344D01*
X0097705Y0105345D02*
X0068453Y0105345D01*
X0069452Y0104347D02*
X0098704Y0104347D01*
X0099702Y0103348D02*
X0070450Y0103348D01*
X0070600Y0102350D02*
X0100701Y0102350D01*
X0101699Y0101351D02*
X0070600Y0101351D01*
X0070600Y0100353D02*
X0102400Y0100353D01*
X0102848Y0099354D02*
X0070152Y0099354D01*
X0070000Y0098356D02*
X0103846Y0098356D01*
X0095708Y0107342D02*
X0032750Y0107342D01*
X0032420Y0108341D02*
X0094710Y0108341D01*
X0093711Y0109339D02*
X0032007Y0109339D01*
X0031087Y0110338D02*
X0092713Y0110338D01*
X0091714Y0111336D02*
X0029543Y0111336D01*
X0030759Y0112335D02*
X0090715Y0112335D01*
X0088000Y0120323D02*
X0031102Y0120323D01*
X0031943Y0121321D02*
X0088000Y0121321D01*
X0088000Y0122320D02*
X0032750Y0122320D01*
X0035214Y0123318D02*
X0049384Y0123318D01*
X0053616Y0123318D02*
X0088000Y0123318D01*
X0088000Y0124317D02*
X0054614Y0124317D01*
X0055613Y0125315D02*
X0088000Y0125315D01*
X0088000Y0126314D02*
X0055953Y0126314D01*
X0055953Y0127312D02*
X0088000Y0127312D01*
X0088000Y0128311D02*
X0055953Y0128311D01*
X0055953Y0129309D02*
X0088000Y0129309D01*
X0068500Y0130308D02*
X0054989Y0130308D01*
X0053991Y0131306D02*
X0067501Y0131306D01*
X0065000Y0137298D02*
X0006000Y0137298D01*
X0006000Y0138296D02*
X0065000Y0138296D01*
X0065102Y0139295D02*
X0006000Y0139295D01*
X0006000Y0140293D02*
X0066101Y0140293D01*
X0067099Y0141292D02*
X0006000Y0141292D01*
X0006000Y0142290D02*
X0068098Y0142290D01*
X0049009Y0131306D02*
X0032315Y0131306D01*
X0032750Y0130308D02*
X0034818Y0130308D01*
X0006000Y0143289D02*
X0119500Y0143289D01*
X0119500Y0144287D02*
X0006000Y0144287D01*
X0006000Y0145286D02*
X0119500Y0145286D01*
X0119500Y0146284D02*
X0006000Y0146284D01*
X0006000Y0147283D02*
X0119500Y0147283D01*
X0119500Y0148281D02*
X0006000Y0148281D01*
X0006000Y0149280D02*
X0119500Y0149280D01*
X0119500Y0150278D02*
X0006000Y0150278D01*
X0006000Y0151277D02*
X0119500Y0151277D01*
X0119500Y0152275D02*
X0006000Y0152275D01*
X0006000Y0153274D02*
X0119500Y0153274D01*
X0119500Y0154272D02*
X0006000Y0154272D01*
X0006000Y0155271D02*
X0119500Y0155271D01*
X0119500Y0156269D02*
X0006000Y0156269D01*
X0006000Y0157268D02*
X0109435Y0157268D01*
X0109656Y0157047D02*
X0113344Y0157047D01*
X0115953Y0159656D01*
X0115953Y0163344D01*
X0113344Y0165953D01*
X0109656Y0165953D01*
X0107203Y0163500D01*
X0101328Y0163500D01*
X0089390Y0175439D01*
X0089500Y0175704D01*
X0089500Y0177296D01*
X0088891Y0178766D01*
X0087766Y0179891D01*
X0086296Y0180500D01*
X0084704Y0180500D01*
X0083234Y0179891D01*
X0082109Y0178766D01*
X0081500Y0177296D01*
X0081500Y0175704D01*
X0082109Y0174234D01*
X0083234Y0173109D01*
X0084704Y0172500D01*
X0086296Y0172500D01*
X0086561Y0172610D01*
X0098500Y0160672D01*
X0099672Y0159500D01*
X0107203Y0159500D01*
X0109656Y0157047D01*
X0108437Y0158266D02*
X0006000Y0158266D01*
X0006000Y0159265D02*
X0107438Y0159265D01*
X0111500Y0161500D02*
X0100500Y0161500D01*
X0085500Y0176500D01*
X0088422Y0179235D02*
X0092578Y0179235D01*
X0092393Y0179050D02*
X0091955Y0178395D01*
X0091654Y0177667D01*
X0091500Y0176894D01*
X0091500Y0176750D01*
X0095250Y0176750D01*
X0095250Y0180500D01*
X0095106Y0180500D01*
X0094333Y0180346D01*
X0093605Y0180045D01*
X0092950Y0179607D01*
X0092393Y0179050D01*
X0091890Y0178237D02*
X0089110Y0178237D01*
X0089500Y0177238D02*
X0091568Y0177238D01*
X0091500Y0176250D02*
X0091500Y0176106D01*
X0091654Y0175333D01*
X0091955Y0174605D01*
X0092393Y0173950D01*
X0092950Y0173393D01*
X0093605Y0172955D01*
X0094333Y0172654D01*
X0095106Y0172500D01*
X0095250Y0172500D01*
X0095250Y0176250D01*
X0091500Y0176250D01*
X0091500Y0176239D02*
X0089500Y0176239D01*
X0089587Y0175241D02*
X0091692Y0175241D01*
X0092198Y0174242D02*
X0090586Y0174242D01*
X0091584Y0173244D02*
X0093173Y0173244D01*
X0092583Y0172245D02*
X0119500Y0172245D01*
X0119500Y0171247D02*
X0093581Y0171247D01*
X0094580Y0170248D02*
X0119500Y0170248D01*
X0119500Y0169250D02*
X0095579Y0169250D01*
X0096577Y0168251D02*
X0119500Y0168251D01*
X0119500Y0167253D02*
X0097576Y0167253D01*
X0098574Y0166254D02*
X0119500Y0166254D01*
X0119500Y0165256D02*
X0114041Y0165256D01*
X0115040Y0164257D02*
X0119500Y0164257D01*
X0119500Y0163259D02*
X0115953Y0163259D01*
X0115953Y0162260D02*
X0119500Y0162260D01*
X0119500Y0161262D02*
X0115953Y0161262D01*
X0115953Y0160263D02*
X0119500Y0160263D01*
X0119500Y0159265D02*
X0115562Y0159265D01*
X0114563Y0158266D02*
X0119500Y0158266D01*
X0119500Y0157268D02*
X0113565Y0157268D01*
X0107960Y0164257D02*
X0100571Y0164257D01*
X0099573Y0165256D02*
X0108959Y0165256D01*
X0106667Y0172654D02*
X0107395Y0172955D01*
X0108050Y0173393D01*
X0108607Y0173950D01*
X0109045Y0174605D01*
X0109346Y0175333D01*
X0109500Y0176106D01*
X0109500Y0176250D01*
X0105750Y0176250D01*
X0105750Y0176750D01*
X0105250Y0176750D01*
X0105250Y0180500D01*
X0105106Y0180500D01*
X0104333Y0180346D01*
X0103605Y0180045D01*
X0102950Y0179607D01*
X0102393Y0179050D01*
X0101955Y0178395D01*
X0101654Y0177667D01*
X0101500Y0176894D01*
X0101500Y0176750D01*
X0105250Y0176750D01*
X0105250Y0176250D01*
X0101500Y0176250D01*
X0101500Y0176106D01*
X0101654Y0175333D01*
X0101955Y0174605D01*
X0102393Y0173950D01*
X0102950Y0173393D01*
X0103605Y0172955D01*
X0104333Y0172654D01*
X0105106Y0172500D01*
X0105250Y0172500D01*
X0105250Y0176250D01*
X0105750Y0176250D01*
X0105750Y0172500D01*
X0105894Y0172500D01*
X0106667Y0172654D01*
X0105750Y0173244D02*
X0105250Y0173244D01*
X0105250Y0174242D02*
X0105750Y0174242D01*
X0105750Y0175241D02*
X0105250Y0175241D01*
X0105250Y0176239D02*
X0105750Y0176239D01*
X0105750Y0176750D02*
X0109500Y0176750D01*
X0109500Y0176894D01*
X0109346Y0177667D01*
X0109045Y0178395D01*
X0108607Y0179050D01*
X0108050Y0179607D01*
X0107395Y0180045D01*
X0106667Y0180346D01*
X0105894Y0180500D01*
X0105750Y0180500D01*
X0105750Y0176750D01*
X0105750Y0177238D02*
X0105250Y0177238D01*
X0105250Y0178237D02*
X0105750Y0178237D01*
X0105750Y0179235D02*
X0105250Y0179235D01*
X0105250Y0180234D02*
X0105750Y0180234D01*
X0106939Y0180234D02*
X0119500Y0180234D01*
X0119500Y0181232D02*
X0006000Y0181232D01*
X0006000Y0180234D02*
X0072112Y0180234D01*
X0072379Y0180500D02*
X0071500Y0179621D01*
X0071500Y0173379D01*
X0072379Y0172500D01*
X0078621Y0172500D01*
X0079500Y0173379D01*
X0079500Y0179621D01*
X0078621Y0180500D01*
X0072379Y0180500D01*
X0071500Y0179235D02*
X0006000Y0179235D01*
X0006000Y0178237D02*
X0071500Y0178237D01*
X0071500Y0177238D02*
X0006000Y0177238D01*
X0006000Y0176239D02*
X0071500Y0176239D01*
X0071500Y0175241D02*
X0006000Y0175241D01*
X0006000Y0174242D02*
X0071500Y0174242D01*
X0071635Y0173244D02*
X0006000Y0173244D01*
X0006000Y0172245D02*
X0018053Y0172245D01*
X0018808Y0173000D02*
X0015000Y0169192D01*
X0015000Y0167000D01*
X0021000Y0167000D01*
X0021000Y0173000D01*
X0018808Y0173000D01*
X0021000Y0172245D02*
X0022000Y0172245D01*
X0022000Y0173000D02*
X0024192Y0173000D01*
X0028000Y0169192D01*
X0028000Y0167000D01*
X0022000Y0167000D01*
X0022000Y0166000D01*
X0028000Y0166000D01*
X0028000Y0163808D01*
X0024192Y0160000D01*
X0022000Y0160000D01*
X0022000Y0166000D01*
X0021000Y0166000D01*
X0021000Y0160000D01*
X0018808Y0160000D01*
X0015000Y0163808D01*
X0015000Y0166000D01*
X0021000Y0166000D01*
X0021000Y0167000D01*
X0022000Y0167000D01*
X0022000Y0173000D01*
X0022000Y0171247D02*
X0021000Y0171247D01*
X0021000Y0170248D02*
X0022000Y0170248D01*
X0022000Y0169250D02*
X0021000Y0169250D01*
X0021000Y0168251D02*
X0022000Y0168251D01*
X0022000Y0167253D02*
X0021000Y0167253D01*
X0021000Y0166254D02*
X0006000Y0166254D01*
X0006000Y0165256D02*
X0015000Y0165256D01*
X0015000Y0164257D02*
X0006000Y0164257D01*
X0006000Y0163259D02*
X0015549Y0163259D01*
X0016547Y0162260D02*
X0006000Y0162260D01*
X0006000Y0161262D02*
X0017546Y0161262D01*
X0018544Y0160263D02*
X0006000Y0160263D01*
X0006000Y0167253D02*
X0015000Y0167253D01*
X0015000Y0168251D02*
X0006000Y0168251D01*
X0006000Y0169250D02*
X0015058Y0169250D01*
X0016056Y0170248D02*
X0006000Y0170248D01*
X0006000Y0171247D02*
X0017055Y0171247D01*
X0022000Y0166254D02*
X0035000Y0166254D01*
X0035000Y0165256D02*
X0028000Y0165256D01*
X0028000Y0164257D02*
X0035393Y0164257D01*
X0035000Y0165207D02*
X0035990Y0162818D01*
X0037818Y0160990D01*
X0040207Y0160000D01*
X0042793Y0160000D01*
X0045182Y0160990D01*
X0047010Y0162818D01*
X0048000Y0165207D01*
X0048000Y0167793D01*
X0047010Y0170182D01*
X0045182Y0172010D01*
X0042793Y0173000D01*
X0040207Y0173000D01*
X0037818Y0172010D01*
X0035990Y0170182D01*
X0035000Y0167793D01*
X0035000Y0165207D01*
X0035000Y0167253D02*
X0028000Y0167253D01*
X0028000Y0168251D02*
X0035190Y0168251D01*
X0035604Y0169250D02*
X0027942Y0169250D01*
X0026944Y0170248D02*
X0036056Y0170248D01*
X0037055Y0171247D02*
X0025945Y0171247D01*
X0024947Y0172245D02*
X0038385Y0172245D01*
X0044615Y0172245D02*
X0086926Y0172245D01*
X0087925Y0171247D02*
X0045945Y0171247D01*
X0046944Y0170248D02*
X0088923Y0170248D01*
X0089922Y0169250D02*
X0047396Y0169250D01*
X0047810Y0168251D02*
X0090920Y0168251D01*
X0091919Y0167253D02*
X0048000Y0167253D01*
X0048000Y0166254D02*
X0092917Y0166254D01*
X0093916Y0165256D02*
X0048000Y0165256D01*
X0047607Y0164257D02*
X0094914Y0164257D01*
X0095913Y0163259D02*
X0047193Y0163259D01*
X0046453Y0162260D02*
X0096911Y0162260D01*
X0097910Y0161262D02*
X0045454Y0161262D01*
X0043429Y0160263D02*
X0098908Y0160263D01*
X0096667Y0172654D02*
X0097395Y0172955D01*
X0098050Y0173393D01*
X0098607Y0173950D01*
X0099045Y0174605D01*
X0099346Y0175333D01*
X0099500Y0176106D01*
X0099500Y0176250D01*
X0095750Y0176250D01*
X0095750Y0176750D01*
X0095250Y0176750D01*
X0095250Y0176250D01*
X0095750Y0176250D01*
X0095750Y0172500D01*
X0095894Y0172500D01*
X0096667Y0172654D01*
X0095750Y0173244D02*
X0095250Y0173244D01*
X0095250Y0174242D02*
X0095750Y0174242D01*
X0095750Y0175241D02*
X0095250Y0175241D01*
X0095250Y0176239D02*
X0095750Y0176239D01*
X0095750Y0176750D02*
X0099500Y0176750D01*
X0099500Y0176894D01*
X0099346Y0177667D01*
X0099045Y0178395D01*
X0098607Y0179050D01*
X0098050Y0179607D01*
X0097395Y0180045D01*
X0096667Y0180346D01*
X0095894Y0180500D01*
X0095750Y0180500D01*
X0095750Y0176750D01*
X0095750Y0177238D02*
X0095250Y0177238D01*
X0095250Y0178237D02*
X0095750Y0178237D01*
X0095750Y0179235D02*
X0095250Y0179235D01*
X0095250Y0180234D02*
X0095750Y0180234D01*
X0096939Y0180234D02*
X0104061Y0180234D01*
X0102578Y0179235D02*
X0098422Y0179235D01*
X0099110Y0178237D02*
X0101890Y0178237D01*
X0101568Y0177238D02*
X0099432Y0177238D01*
X0099500Y0176239D02*
X0101500Y0176239D01*
X0101692Y0175241D02*
X0099308Y0175241D01*
X0098802Y0174242D02*
X0102198Y0174242D01*
X0103173Y0173244D02*
X0097827Y0173244D01*
X0107827Y0173244D02*
X0119500Y0173244D01*
X0119500Y0174242D02*
X0108802Y0174242D01*
X0109308Y0175241D02*
X0119500Y0175241D01*
X0119500Y0176239D02*
X0109500Y0176239D01*
X0109432Y0177238D02*
X0119500Y0177238D01*
X0119500Y0178237D02*
X0109110Y0178237D01*
X0108422Y0179235D02*
X0119500Y0179235D01*
X0123500Y0179235D02*
X0397000Y0179235D01*
X0397000Y0178237D02*
X0123500Y0178237D01*
X0123500Y0177238D02*
X0397000Y0177238D01*
X0397000Y0176239D02*
X0123500Y0176239D01*
X0123500Y0175241D02*
X0397000Y0175241D01*
X0397000Y0174242D02*
X0123500Y0174242D01*
X0123500Y0173244D02*
X0397000Y0173244D01*
X0397000Y0172245D02*
X0123500Y0172245D01*
X0123500Y0171247D02*
X0397000Y0171247D01*
X0397000Y0170248D02*
X0123500Y0170248D01*
X0123500Y0169250D02*
X0397000Y0169250D01*
X0397000Y0168251D02*
X0123500Y0168251D01*
X0123500Y0167253D02*
X0397000Y0167253D01*
X0397000Y0166254D02*
X0123500Y0166254D01*
X0123500Y0165256D02*
X0397000Y0165256D01*
X0397000Y0164257D02*
X0123500Y0164257D01*
X0123500Y0163259D02*
X0397000Y0163259D01*
X0397000Y0162260D02*
X0123500Y0162260D01*
X0123500Y0161262D02*
X0397000Y0161262D01*
X0397000Y0160263D02*
X0123500Y0160263D01*
X0123500Y0159265D02*
X0397000Y0159265D01*
X0397000Y0158266D02*
X0123500Y0158266D01*
X0123500Y0157268D02*
X0397000Y0157268D01*
X0397000Y0156269D02*
X0123500Y0156269D01*
X0123500Y0155271D02*
X0397000Y0155271D01*
X0397000Y0154272D02*
X0123500Y0154272D01*
X0123500Y0153274D02*
X0397000Y0153274D01*
X0397000Y0152275D02*
X0123500Y0152275D01*
X0123500Y0151277D02*
X0397000Y0151277D01*
X0397000Y0150278D02*
X0123500Y0150278D01*
X0123500Y0149280D02*
X0397000Y0149280D01*
X0397000Y0148281D02*
X0123500Y0148281D01*
X0123500Y0147283D02*
X0397000Y0147283D01*
X0397000Y0146284D02*
X0123500Y0146284D01*
X0123500Y0145286D02*
X0397000Y0145286D01*
X0397000Y0144287D02*
X0123500Y0144287D01*
X0123500Y0143289D02*
X0397000Y0143289D01*
X0397000Y0142290D02*
X0123500Y0142290D01*
X0123500Y0141292D02*
X0397000Y0141292D01*
X0397000Y0140293D02*
X0123500Y0140293D01*
X0123500Y0139295D02*
X0397000Y0139295D01*
X0397000Y0138296D02*
X0123500Y0138296D01*
X0123500Y0137298D02*
X0397000Y0137298D01*
X0397000Y0136299D02*
X0123500Y0136299D01*
X0123500Y0135301D02*
X0397000Y0135301D01*
X0397000Y0134302D02*
X0123500Y0134302D01*
X0123500Y0133303D02*
X0397000Y0133303D01*
X0397000Y0132305D02*
X0123500Y0132305D01*
X0123500Y0131306D02*
X0397000Y0131306D01*
X0397000Y0130308D02*
X0123500Y0130308D01*
X0123500Y0129309D02*
X0397000Y0129309D01*
X0397000Y0128311D02*
X0123500Y0128311D01*
X0123500Y0127312D02*
X0397000Y0127312D01*
X0397000Y0126314D02*
X0123500Y0126314D01*
X0123500Y0125315D02*
X0397000Y0125315D01*
X0397000Y0124317D02*
X0123500Y0124317D01*
X0123500Y0123318D02*
X0397000Y0123318D01*
X0397000Y0122320D02*
X0123500Y0122320D01*
X0123500Y0121321D02*
X0397000Y0121321D01*
X0397000Y0120323D02*
X0123500Y0120323D01*
X0123500Y0119324D02*
X0397000Y0119324D01*
X0397000Y0118326D02*
X0123500Y0118326D01*
X0123500Y0117327D02*
X0397000Y0117327D01*
X0397000Y0116329D02*
X0123500Y0116329D01*
X0123500Y0115330D02*
X0397000Y0115330D01*
X0397000Y0114332D02*
X0123500Y0114332D01*
X0123500Y0113333D02*
X0397000Y0113333D01*
X0397000Y0112335D02*
X0123500Y0112335D01*
X0123500Y0111336D02*
X0397000Y0111336D01*
X0397000Y0110338D02*
X0123500Y0110338D01*
X0123500Y0109339D02*
X0397000Y0109339D01*
X0397000Y0108341D02*
X0123500Y0108341D01*
X0123500Y0107342D02*
X0397000Y0107342D01*
X0397000Y0106344D02*
X0123500Y0106344D01*
X0123500Y0105345D02*
X0397000Y0105345D01*
X0397000Y0104347D02*
X0123500Y0104347D01*
X0123500Y0103348D02*
X0397000Y0103348D01*
X0397000Y0102350D02*
X0123500Y0102350D01*
X0123500Y0101351D02*
X0397000Y0101351D01*
X0397000Y0100353D02*
X0123500Y0100353D01*
X0123500Y0099354D02*
X0397000Y0099354D01*
X0397000Y0098356D02*
X0123500Y0098356D01*
X0123500Y0097357D02*
X0397000Y0097357D01*
X0397000Y0096359D02*
X0123500Y0096359D01*
X0123500Y0095360D02*
X0397000Y0095360D01*
X0397000Y0094362D02*
X0123500Y0094362D01*
X0123500Y0093363D02*
X0397000Y0093363D01*
X0397000Y0092365D02*
X0123500Y0092365D01*
X0123500Y0091366D02*
X0397000Y0091366D01*
X0397000Y0090368D02*
X0123196Y0090368D01*
X0122197Y0089369D02*
X0397000Y0089369D01*
X0397000Y0088370D02*
X0121199Y0088370D01*
X0120200Y0087372D02*
X0397000Y0087372D01*
X0397000Y0086373D02*
X0119202Y0086373D01*
X0118203Y0085375D02*
X0397000Y0085375D01*
X0397000Y0084376D02*
X0117205Y0084376D01*
X0116206Y0083378D02*
X0397000Y0083378D01*
X0397000Y0082379D02*
X0115208Y0082379D01*
X0114209Y0081381D02*
X0397000Y0081381D01*
X0397000Y0080382D02*
X0113211Y0080382D01*
X0111929Y0079384D02*
X0397000Y0079384D01*
X0397000Y0078385D02*
X0110931Y0078385D01*
X0109932Y0077387D02*
X0397000Y0077387D01*
X0397000Y0076388D02*
X0108934Y0076388D01*
X0107935Y0075390D02*
X0397000Y0075390D01*
X0397000Y0074391D02*
X0106937Y0074391D01*
X0111500Y0081500D02*
X0121500Y0091500D01*
X0121500Y0216500D01*
X0095500Y0236500D01*
X0091853Y0238147D02*
X0089147Y0238147D01*
X0088891Y0238766D02*
X0087766Y0239891D01*
X0086296Y0240500D01*
X0084861Y0240500D01*
X0083500Y0242202D01*
X0083500Y0242328D01*
X0082993Y0242836D01*
X0082544Y0243396D01*
X0082418Y0243410D01*
X0082328Y0243500D01*
X0081611Y0243500D01*
X0080897Y0243579D01*
X0080798Y0243500D01*
X0055298Y0243500D01*
X0053198Y0245600D01*
X0049802Y0245600D01*
X0047702Y0243500D01*
X0035672Y0243500D01*
X0034500Y0242328D01*
X0022944Y0230773D01*
X0022395Y0231000D01*
X0020605Y0231000D01*
X0018951Y0230315D01*
X0017685Y0229049D01*
X0017000Y0227395D01*
X0017000Y0225605D01*
X0017685Y0223951D01*
X0018951Y0222685D01*
X0020605Y0222000D01*
X0022395Y0222000D01*
X0024049Y0222685D01*
X0025315Y0223951D01*
X0026000Y0225605D01*
X0026000Y0227395D01*
X0025773Y0227944D01*
X0037328Y0239500D01*
X0047702Y0239500D01*
X0049802Y0237400D01*
X0053198Y0237400D01*
X0055298Y0239500D01*
X0072843Y0239500D01*
X0072109Y0238766D01*
X0071500Y0237296D01*
X0071500Y0235704D01*
X0072109Y0234234D01*
X0073234Y0233109D01*
X0074704Y0232500D01*
X0076296Y0232500D01*
X0077766Y0233109D01*
X0078891Y0234234D01*
X0079500Y0235704D01*
X0079500Y0237296D01*
X0078891Y0238766D01*
X0078157Y0239500D01*
X0080539Y0239500D01*
X0081774Y0237956D01*
X0081500Y0237296D01*
X0081500Y0235704D01*
X0082109Y0234234D01*
X0083234Y0233109D01*
X0084704Y0232500D01*
X0086296Y0232500D01*
X0087766Y0233109D01*
X0088891Y0234234D01*
X0089500Y0235704D01*
X0089500Y0237296D01*
X0088891Y0238766D01*
X0088511Y0239146D02*
X0092489Y0239146D01*
X0093845Y0240144D02*
X0087155Y0240144D01*
X0084347Y0241143D02*
X0383000Y0241143D01*
X0383000Y0242141D02*
X0083548Y0242141D01*
X0082749Y0243140D02*
X0383000Y0243140D01*
X0383392Y0244138D02*
X0054660Y0244138D01*
X0053661Y0245137D02*
X0383806Y0245137D01*
X0384220Y0246135D02*
X0018780Y0246135D01*
X0019194Y0245137D02*
X0049339Y0245137D01*
X0048340Y0244138D02*
X0019608Y0244138D01*
X0020000Y0243140D02*
X0035311Y0243140D01*
X0034313Y0242141D02*
X0020000Y0242141D01*
X0020000Y0241143D02*
X0033314Y0241143D01*
X0032316Y0240144D02*
X0020000Y0240144D01*
X0019725Y0239146D02*
X0031317Y0239146D01*
X0030319Y0238147D02*
X0019312Y0238147D01*
X0018898Y0237149D02*
X0029320Y0237149D01*
X0028322Y0236150D02*
X0018171Y0236150D01*
X0017172Y0235152D02*
X0027323Y0235152D01*
X0026325Y0234153D02*
X0015975Y0234153D01*
X0013564Y0233155D02*
X0025326Y0233155D01*
X0024328Y0232156D02*
X0006000Y0232156D01*
X0006000Y0231158D02*
X0023329Y0231158D01*
X0025990Y0228162D02*
X0103059Y0228162D01*
X0101761Y0229161D02*
X0026989Y0229161D01*
X0027987Y0230159D02*
X0100463Y0230159D01*
X0099165Y0231158D02*
X0028986Y0231158D01*
X0029985Y0232156D02*
X0097867Y0232156D01*
X0100533Y0235152D02*
X0101729Y0235152D01*
X0101500Y0235704D02*
X0102109Y0234234D01*
X0103234Y0233109D01*
X0104704Y0232500D01*
X0106296Y0232500D01*
X0107766Y0233109D01*
X0108891Y0234234D01*
X0109500Y0235704D01*
X0109500Y0237296D01*
X0108891Y0238766D01*
X0107766Y0239891D01*
X0106296Y0240500D01*
X0104704Y0240500D01*
X0103234Y0239891D01*
X0102109Y0238766D01*
X0101500Y0237296D01*
X0101500Y0235704D01*
X0101500Y0236150D02*
X0099500Y0236150D01*
X0099500Y0237149D02*
X0101500Y0237149D01*
X0101853Y0238147D02*
X0099147Y0238147D01*
X0098511Y0239146D02*
X0102489Y0239146D01*
X0103845Y0240144D02*
X0097155Y0240144D01*
X0091500Y0237149D02*
X0089500Y0237149D01*
X0089500Y0236150D02*
X0091500Y0236150D01*
X0091729Y0235152D02*
X0089271Y0235152D01*
X0088810Y0234153D02*
X0092190Y0234153D01*
X0093189Y0233155D02*
X0087811Y0233155D01*
X0085500Y0236500D02*
X0081500Y0241500D01*
X0051500Y0241500D01*
X0036500Y0241500D01*
X0021500Y0226500D01*
X0017318Y0228162D02*
X0006000Y0228162D01*
X0006000Y0227164D02*
X0017000Y0227164D01*
X0017000Y0226165D02*
X0006000Y0226165D01*
X0006000Y0225167D02*
X0017182Y0225167D01*
X0017595Y0224168D02*
X0006000Y0224168D01*
X0006000Y0223170D02*
X0018467Y0223170D01*
X0020192Y0222171D02*
X0006000Y0222171D01*
X0006000Y0221172D02*
X0047400Y0221172D01*
X0047400Y0221200D02*
X0047400Y0219802D01*
X0049802Y0217400D01*
X0051200Y0217400D01*
X0051200Y0221200D01*
X0047400Y0221200D01*
X0047400Y0221800D02*
X0051200Y0221800D01*
X0051200Y0225600D01*
X0049802Y0225600D01*
X0047400Y0223198D01*
X0047400Y0221800D01*
X0047400Y0222171D02*
X0022808Y0222171D01*
X0022554Y0220889D02*
X0022000Y0220977D01*
X0022000Y0217000D01*
X0025977Y0217000D01*
X0025889Y0217554D01*
X0025670Y0218227D01*
X0025349Y0218859D01*
X0024932Y0219432D01*
X0024432Y0219932D01*
X0023859Y0220349D01*
X0023227Y0220670D01*
X0022554Y0220889D01*
X0022000Y0220174D02*
X0021000Y0220174D01*
X0021000Y0220977D02*
X0020446Y0220889D01*
X0019773Y0220670D01*
X0019141Y0220349D01*
X0018568Y0219932D01*
X0018068Y0219432D01*
X0017651Y0218859D01*
X0017330Y0218227D01*
X0017111Y0217554D01*
X0017023Y0217000D01*
X0021000Y0217000D01*
X0021000Y0220977D01*
X0021000Y0219175D02*
X0022000Y0219175D01*
X0022000Y0218177D02*
X0021000Y0218177D01*
X0021000Y0217178D02*
X0022000Y0217178D01*
X0022000Y0217000D02*
X0021000Y0217000D01*
X0021000Y0216000D01*
X0022000Y0216000D01*
X0022000Y0217000D01*
X0022000Y0216180D02*
X0118636Y0216180D01*
X0119500Y0215181D02*
X0025803Y0215181D01*
X0025889Y0215446D02*
X0025977Y0216000D01*
X0022000Y0216000D01*
X0022000Y0212023D01*
X0022554Y0212111D01*
X0023227Y0212330D01*
X0023859Y0212651D01*
X0024432Y0213068D01*
X0024932Y0213568D01*
X0025349Y0214141D01*
X0025670Y0214773D01*
X0025889Y0215446D01*
X0025370Y0214183D02*
X0119500Y0214183D01*
X0119500Y0213184D02*
X0024548Y0213184D01*
X0022785Y0212186D02*
X0119500Y0212186D01*
X0119500Y0211187D02*
X0006000Y0211187D01*
X0006000Y0210189D02*
X0018825Y0210189D01*
X0018951Y0210315D02*
X0017685Y0209049D01*
X0017000Y0207395D01*
X0017000Y0205605D01*
X0017685Y0203951D01*
X0018951Y0202685D01*
X0020605Y0202000D01*
X0022395Y0202000D01*
X0024049Y0202685D01*
X0025315Y0203951D01*
X0026000Y0205605D01*
X0026000Y0207395D01*
X0025315Y0209049D01*
X0024049Y0210315D01*
X0022395Y0211000D01*
X0020605Y0211000D01*
X0018951Y0210315D01*
X0017826Y0209190D02*
X0006000Y0209190D01*
X0006000Y0208192D02*
X0017330Y0208192D01*
X0017000Y0207193D02*
X0006000Y0207193D01*
X0006000Y0206195D02*
X0017000Y0206195D01*
X0017169Y0205196D02*
X0006000Y0205196D01*
X0006000Y0204198D02*
X0017583Y0204198D01*
X0018437Y0203199D02*
X0006000Y0203199D01*
X0006000Y0202201D02*
X0020120Y0202201D01*
X0022880Y0202201D02*
X0119500Y0202201D01*
X0119500Y0203199D02*
X0024563Y0203199D01*
X0025417Y0204198D02*
X0119500Y0204198D01*
X0119500Y0205196D02*
X0025831Y0205196D01*
X0026000Y0206195D02*
X0119500Y0206195D01*
X0119500Y0207193D02*
X0026000Y0207193D01*
X0025670Y0208192D02*
X0119500Y0208192D01*
X0119500Y0209190D02*
X0025174Y0209190D01*
X0024175Y0210189D02*
X0119500Y0210189D01*
X0123500Y0210189D02*
X0397000Y0210189D01*
X0397000Y0211187D02*
X0123500Y0211187D01*
X0123500Y0212186D02*
X0397000Y0212186D01*
X0397000Y0213184D02*
X0123500Y0213184D01*
X0123500Y0214183D02*
X0397000Y0214183D01*
X0397000Y0215181D02*
X0123500Y0215181D01*
X0123559Y0216180D02*
X0397000Y0216180D01*
X0397000Y0217178D02*
X0344249Y0217178D01*
X0343571Y0216500D02*
X0346500Y0219429D01*
X0346500Y0223571D01*
X0343571Y0226500D01*
X0346500Y0229429D01*
X0346500Y0233571D01*
X0343571Y0236500D01*
X0339429Y0236500D01*
X0336500Y0233571D01*
X0336500Y0229429D01*
X0339429Y0226500D01*
X0343571Y0226500D01*
X0339429Y0226500D01*
X0336500Y0223571D01*
X0333571Y0226500D01*
X0336500Y0229429D01*
X0336500Y0233571D01*
X0333571Y0236500D01*
X0329429Y0236500D01*
X0326500Y0233571D01*
X0326500Y0229429D01*
X0329429Y0226500D01*
X0333571Y0226500D01*
X0329429Y0226500D01*
X0326500Y0223571D01*
X0323571Y0226500D01*
X0326500Y0229429D01*
X0326500Y0233571D01*
X0323571Y0236500D01*
X0319429Y0236500D01*
X0316500Y0233571D01*
X0316500Y0229429D01*
X0319429Y0226500D01*
X0323571Y0226500D01*
X0319429Y0226500D01*
X0316500Y0223571D01*
X0313571Y0226500D01*
X0316500Y0229429D01*
X0316500Y0233571D01*
X0313571Y0236500D01*
X0309429Y0236500D01*
X0306500Y0233571D01*
X0306500Y0229429D01*
X0309429Y0226500D01*
X0313571Y0226500D01*
X0309429Y0226500D01*
X0306500Y0223571D01*
X0303571Y0226500D01*
X0306500Y0229429D01*
X0306500Y0233571D01*
X0303571Y0236500D01*
X0299429Y0236500D01*
X0296500Y0233571D01*
X0296500Y0229429D01*
X0299429Y0226500D01*
X0303571Y0226500D01*
X0299429Y0226500D01*
X0296500Y0223571D01*
X0293571Y0226500D01*
X0296500Y0229429D01*
X0296500Y0233571D01*
X0293571Y0236500D01*
X0289429Y0236500D01*
X0286500Y0233571D01*
X0286500Y0229429D01*
X0289429Y0226500D01*
X0293571Y0226500D01*
X0289429Y0226500D01*
X0286500Y0223571D01*
X0283571Y0226500D01*
X0286500Y0229429D01*
X0286500Y0233571D01*
X0283571Y0236500D01*
X0279429Y0236500D01*
X0276500Y0233571D01*
X0276500Y0229429D01*
X0279429Y0226500D01*
X0283571Y0226500D01*
X0279429Y0226500D01*
X0276500Y0223571D01*
X0273571Y0226500D01*
X0276500Y0229429D01*
X0276500Y0233571D01*
X0273571Y0236500D01*
X0269429Y0236500D01*
X0266500Y0233571D01*
X0266500Y0229429D01*
X0269429Y0226500D01*
X0273571Y0226500D01*
X0269429Y0226500D01*
X0266500Y0223571D01*
X0263571Y0226500D01*
X0266500Y0229429D01*
X0266500Y0233571D01*
X0263571Y0236500D01*
X0259429Y0236500D01*
X0256500Y0233571D01*
X0256500Y0229429D01*
X0259429Y0226500D01*
X0263571Y0226500D01*
X0259429Y0226500D01*
X0256500Y0223571D01*
X0253571Y0226500D01*
X0256500Y0229429D01*
X0256500Y0231000D01*
X0252000Y0231000D01*
X0252000Y0232000D01*
X0251000Y0232000D01*
X0251000Y0236500D01*
X0249429Y0236500D01*
X0246500Y0233571D01*
X0246500Y0232000D01*
X0251000Y0232000D01*
X0251000Y0231000D01*
X0246500Y0231000D01*
X0246500Y0229429D01*
X0249429Y0226500D01*
X0251000Y0226500D01*
X0251000Y0231000D01*
X0252000Y0231000D01*
X0252000Y0226500D01*
X0253571Y0226500D01*
X0249429Y0226500D01*
X0246500Y0223571D01*
X0246500Y0219429D01*
X0249429Y0216500D01*
X0253571Y0216500D01*
X0256500Y0219429D01*
X0256500Y0223571D01*
X0256500Y0219429D01*
X0259429Y0216500D01*
X0263571Y0216500D01*
X0266500Y0219429D01*
X0266500Y0223571D01*
X0266500Y0219429D01*
X0269429Y0216500D01*
X0273571Y0216500D01*
X0276500Y0219429D01*
X0276500Y0223571D01*
X0276500Y0219429D01*
X0279429Y0216500D01*
X0283571Y0216500D01*
X0286500Y0219429D01*
X0286500Y0223571D01*
X0286500Y0219429D01*
X0289429Y0216500D01*
X0293571Y0216500D01*
X0296500Y0219429D01*
X0296500Y0223571D01*
X0296500Y0219429D01*
X0299429Y0216500D01*
X0303571Y0216500D01*
X0306500Y0219429D01*
X0306500Y0223571D01*
X0306500Y0219429D01*
X0309429Y0216500D01*
X0313571Y0216500D01*
X0316500Y0219429D01*
X0316500Y0223571D01*
X0316500Y0219429D01*
X0319429Y0216500D01*
X0323571Y0216500D01*
X0326500Y0219429D01*
X0326500Y0223571D01*
X0326500Y0219429D01*
X0329429Y0216500D01*
X0333571Y0216500D01*
X0336500Y0219429D01*
X0336500Y0223571D01*
X0336500Y0219429D01*
X0339429Y0216500D01*
X0343571Y0216500D01*
X0345248Y0218177D02*
X0397000Y0218177D01*
X0397000Y0219175D02*
X0346247Y0219175D01*
X0346500Y0220174D02*
X0397000Y0220174D01*
X0397000Y0221172D02*
X0346500Y0221172D01*
X0346500Y0222171D02*
X0397000Y0222171D01*
X0397000Y0223170D02*
X0346500Y0223170D01*
X0345903Y0224168D02*
X0397000Y0224168D01*
X0397000Y0225167D02*
X0344905Y0225167D01*
X0343906Y0226165D02*
X0397000Y0226165D01*
X0397000Y0227164D02*
X0344235Y0227164D01*
X0345233Y0228162D02*
X0397000Y0228162D01*
X0397000Y0229161D02*
X0346232Y0229161D01*
X0346500Y0230159D02*
X0397000Y0230159D01*
X0397000Y0231158D02*
X0346500Y0231158D01*
X0346500Y0232156D02*
X0397000Y0232156D01*
X0397000Y0233155D02*
X0393564Y0233155D01*
X0395975Y0234153D02*
X0397000Y0234153D01*
X0389436Y0233155D02*
X0346500Y0233155D01*
X0345918Y0234153D02*
X0387025Y0234153D01*
X0385828Y0235152D02*
X0344919Y0235152D01*
X0343921Y0236150D02*
X0384829Y0236150D01*
X0384102Y0237149D02*
X0109500Y0237149D01*
X0109500Y0236150D02*
X0249079Y0236150D01*
X0248081Y0235152D02*
X0109271Y0235152D01*
X0108810Y0234153D02*
X0247082Y0234153D01*
X0246500Y0233155D02*
X0107811Y0233155D01*
X0105725Y0231158D02*
X0251000Y0231158D01*
X0251000Y0232156D02*
X0252000Y0232156D01*
X0252000Y0232000D02*
X0252000Y0236500D01*
X0253571Y0236500D01*
X0256500Y0233571D01*
X0256500Y0232000D01*
X0252000Y0232000D01*
X0252000Y0231158D02*
X0256500Y0231158D01*
X0256500Y0232156D02*
X0256500Y0232156D01*
X0256500Y0233155D02*
X0256500Y0233155D01*
X0255918Y0234153D02*
X0257082Y0234153D01*
X0258081Y0235152D02*
X0254919Y0235152D01*
X0253921Y0236150D02*
X0259079Y0236150D01*
X0263921Y0236150D02*
X0269079Y0236150D01*
X0268081Y0235152D02*
X0264919Y0235152D01*
X0265918Y0234153D02*
X0267082Y0234153D01*
X0266500Y0233155D02*
X0266500Y0233155D01*
X0266500Y0232156D02*
X0266500Y0232156D01*
X0266500Y0231158D02*
X0266500Y0231158D01*
X0266500Y0230159D02*
X0266500Y0230159D01*
X0266232Y0229161D02*
X0266768Y0229161D01*
X0267767Y0228162D02*
X0265233Y0228162D01*
X0264235Y0227164D02*
X0268765Y0227164D01*
X0269094Y0226165D02*
X0263906Y0226165D01*
X0264905Y0225167D02*
X0268095Y0225167D01*
X0267097Y0224168D02*
X0265903Y0224168D01*
X0266500Y0223170D02*
X0266500Y0223170D01*
X0266500Y0222171D02*
X0266500Y0222171D01*
X0266500Y0221172D02*
X0266500Y0221172D01*
X0266500Y0220174D02*
X0266500Y0220174D01*
X0266247Y0219175D02*
X0266753Y0219175D01*
X0267752Y0218177D02*
X0265248Y0218177D01*
X0264249Y0217178D02*
X0268750Y0217178D01*
X0274249Y0217178D02*
X0278750Y0217178D01*
X0277752Y0218177D02*
X0275248Y0218177D01*
X0276247Y0219175D02*
X0276753Y0219175D01*
X0276500Y0220174D02*
X0276500Y0220174D01*
X0276500Y0221172D02*
X0276500Y0221172D01*
X0276500Y0222171D02*
X0276500Y0222171D01*
X0276500Y0223170D02*
X0276500Y0223170D01*
X0275903Y0224168D02*
X0277097Y0224168D01*
X0278095Y0225167D02*
X0274905Y0225167D01*
X0273906Y0226165D02*
X0279094Y0226165D01*
X0278765Y0227164D02*
X0274235Y0227164D01*
X0275233Y0228162D02*
X0277767Y0228162D01*
X0276768Y0229161D02*
X0276232Y0229161D01*
X0276500Y0230159D02*
X0276500Y0230159D01*
X0276500Y0231158D02*
X0276500Y0231158D01*
X0276500Y0232156D02*
X0276500Y0232156D01*
X0276500Y0233155D02*
X0276500Y0233155D01*
X0275918Y0234153D02*
X0277082Y0234153D01*
X0278081Y0235152D02*
X0274919Y0235152D01*
X0273921Y0236150D02*
X0279079Y0236150D01*
X0283921Y0236150D02*
X0289079Y0236150D01*
X0288081Y0235152D02*
X0284919Y0235152D01*
X0285918Y0234153D02*
X0287082Y0234153D01*
X0286500Y0233155D02*
X0286500Y0233155D01*
X0286500Y0232156D02*
X0286500Y0232156D01*
X0286500Y0231158D02*
X0286500Y0231158D01*
X0286500Y0230159D02*
X0286500Y0230159D01*
X0286232Y0229161D02*
X0286768Y0229161D01*
X0287767Y0228162D02*
X0285233Y0228162D01*
X0284235Y0227164D02*
X0288765Y0227164D01*
X0289094Y0226165D02*
X0283906Y0226165D01*
X0284905Y0225167D02*
X0288095Y0225167D01*
X0287097Y0224168D02*
X0285903Y0224168D01*
X0286500Y0223170D02*
X0286500Y0223170D01*
X0286500Y0222171D02*
X0286500Y0222171D01*
X0286500Y0221172D02*
X0286500Y0221172D01*
X0286500Y0220174D02*
X0286500Y0220174D01*
X0286247Y0219175D02*
X0286753Y0219175D01*
X0287752Y0218177D02*
X0285248Y0218177D01*
X0284249Y0217178D02*
X0288750Y0217178D01*
X0294249Y0217178D02*
X0298750Y0217178D01*
X0297752Y0218177D02*
X0295248Y0218177D01*
X0296247Y0219175D02*
X0296753Y0219175D01*
X0296500Y0220174D02*
X0296500Y0220174D01*
X0296500Y0221172D02*
X0296500Y0221172D01*
X0296500Y0222171D02*
X0296500Y0222171D01*
X0296500Y0223170D02*
X0296500Y0223170D01*
X0295903Y0224168D02*
X0297097Y0224168D01*
X0298095Y0225167D02*
X0294905Y0225167D01*
X0293906Y0226165D02*
X0299094Y0226165D01*
X0298765Y0227164D02*
X0294235Y0227164D01*
X0295233Y0228162D02*
X0297767Y0228162D01*
X0296768Y0229161D02*
X0296232Y0229161D01*
X0296500Y0230159D02*
X0296500Y0230159D01*
X0296500Y0231158D02*
X0296500Y0231158D01*
X0296500Y0232156D02*
X0296500Y0232156D01*
X0296500Y0233155D02*
X0296500Y0233155D01*
X0295918Y0234153D02*
X0297082Y0234153D01*
X0298081Y0235152D02*
X0294919Y0235152D01*
X0293921Y0236150D02*
X0299079Y0236150D01*
X0303921Y0236150D02*
X0309079Y0236150D01*
X0308081Y0235152D02*
X0304919Y0235152D01*
X0305918Y0234153D02*
X0307082Y0234153D01*
X0306500Y0233155D02*
X0306500Y0233155D01*
X0306500Y0232156D02*
X0306500Y0232156D01*
X0306500Y0231158D02*
X0306500Y0231158D01*
X0306500Y0230159D02*
X0306500Y0230159D01*
X0306232Y0229161D02*
X0306768Y0229161D01*
X0307767Y0228162D02*
X0305233Y0228162D01*
X0304235Y0227164D02*
X0308765Y0227164D01*
X0309094Y0226165D02*
X0303906Y0226165D01*
X0304905Y0225167D02*
X0308095Y0225167D01*
X0307097Y0224168D02*
X0305903Y0224168D01*
X0306500Y0223170D02*
X0306500Y0223170D01*
X0306500Y0222171D02*
X0306500Y0222171D01*
X0306500Y0221172D02*
X0306500Y0221172D01*
X0306500Y0220174D02*
X0306500Y0220174D01*
X0306247Y0219175D02*
X0306753Y0219175D01*
X0307752Y0218177D02*
X0305248Y0218177D01*
X0304249Y0217178D02*
X0308750Y0217178D01*
X0314249Y0217178D02*
X0318750Y0217178D01*
X0317752Y0218177D02*
X0315248Y0218177D01*
X0316247Y0219175D02*
X0316753Y0219175D01*
X0316500Y0220174D02*
X0316500Y0220174D01*
X0316500Y0221172D02*
X0316500Y0221172D01*
X0316500Y0222171D02*
X0316500Y0222171D01*
X0316500Y0223170D02*
X0316500Y0223170D01*
X0315903Y0224168D02*
X0317097Y0224168D01*
X0318095Y0225167D02*
X0314905Y0225167D01*
X0313906Y0226165D02*
X0319094Y0226165D01*
X0318765Y0227164D02*
X0314235Y0227164D01*
X0315233Y0228162D02*
X0317767Y0228162D01*
X0316768Y0229161D02*
X0316232Y0229161D01*
X0316500Y0230159D02*
X0316500Y0230159D01*
X0316500Y0231158D02*
X0316500Y0231158D01*
X0316500Y0232156D02*
X0316500Y0232156D01*
X0316500Y0233155D02*
X0316500Y0233155D01*
X0315918Y0234153D02*
X0317082Y0234153D01*
X0318081Y0235152D02*
X0314919Y0235152D01*
X0313921Y0236150D02*
X0319079Y0236150D01*
X0323921Y0236150D02*
X0329079Y0236150D01*
X0328081Y0235152D02*
X0324919Y0235152D01*
X0325918Y0234153D02*
X0327082Y0234153D01*
X0326500Y0233155D02*
X0326500Y0233155D01*
X0326500Y0232156D02*
X0326500Y0232156D01*
X0326500Y0231158D02*
X0326500Y0231158D01*
X0326500Y0230159D02*
X0326500Y0230159D01*
X0326232Y0229161D02*
X0326768Y0229161D01*
X0327767Y0228162D02*
X0325233Y0228162D01*
X0324235Y0227164D02*
X0328765Y0227164D01*
X0329094Y0226165D02*
X0323906Y0226165D01*
X0324905Y0225167D02*
X0328095Y0225167D01*
X0327097Y0224168D02*
X0325903Y0224168D01*
X0326500Y0223170D02*
X0326500Y0223170D01*
X0326500Y0222171D02*
X0326500Y0222171D01*
X0326500Y0221172D02*
X0326500Y0221172D01*
X0326500Y0220174D02*
X0326500Y0220174D01*
X0326247Y0219175D02*
X0326753Y0219175D01*
X0327752Y0218177D02*
X0325248Y0218177D01*
X0324249Y0217178D02*
X0328750Y0217178D01*
X0334249Y0217178D02*
X0338750Y0217178D01*
X0337752Y0218177D02*
X0335248Y0218177D01*
X0336247Y0219175D02*
X0336753Y0219175D01*
X0336500Y0220174D02*
X0336500Y0220174D01*
X0336500Y0221172D02*
X0336500Y0221172D01*
X0336500Y0222171D02*
X0336500Y0222171D01*
X0336500Y0223170D02*
X0336500Y0223170D01*
X0335903Y0224168D02*
X0337097Y0224168D01*
X0338095Y0225167D02*
X0334905Y0225167D01*
X0333906Y0226165D02*
X0339094Y0226165D01*
X0338765Y0227164D02*
X0334235Y0227164D01*
X0335233Y0228162D02*
X0337767Y0228162D01*
X0336768Y0229161D02*
X0336232Y0229161D01*
X0336500Y0230159D02*
X0336500Y0230159D01*
X0336500Y0231158D02*
X0336500Y0231158D01*
X0336500Y0232156D02*
X0336500Y0232156D01*
X0336500Y0233155D02*
X0336500Y0233155D01*
X0335918Y0234153D02*
X0337082Y0234153D01*
X0338081Y0235152D02*
X0334919Y0235152D01*
X0333921Y0236150D02*
X0339079Y0236150D01*
X0383000Y0240144D02*
X0107155Y0240144D01*
X0108511Y0239146D02*
X0383275Y0239146D01*
X0383688Y0238147D02*
X0109147Y0238147D01*
X0103189Y0233155D02*
X0103129Y0233155D01*
X0102190Y0234153D02*
X0101831Y0234153D01*
X0104427Y0232156D02*
X0246500Y0232156D01*
X0246500Y0230159D02*
X0107023Y0230159D01*
X0108321Y0229161D02*
X0246768Y0229161D01*
X0247767Y0228162D02*
X0109620Y0228162D01*
X0110918Y0227164D02*
X0248765Y0227164D01*
X0249094Y0226165D02*
X0112216Y0226165D01*
X0113514Y0225167D02*
X0248095Y0225167D01*
X0247097Y0224168D02*
X0114812Y0224168D01*
X0116110Y0223170D02*
X0246500Y0223170D01*
X0246500Y0222171D02*
X0117408Y0222171D01*
X0118706Y0221172D02*
X0246500Y0221172D01*
X0246500Y0220174D02*
X0120004Y0220174D01*
X0121302Y0219175D02*
X0246753Y0219175D01*
X0247752Y0218177D02*
X0122651Y0218177D01*
X0123500Y0217178D02*
X0248750Y0217178D01*
X0254249Y0217178D02*
X0258750Y0217178D01*
X0257752Y0218177D02*
X0255248Y0218177D01*
X0256247Y0219175D02*
X0256753Y0219175D01*
X0256500Y0220174D02*
X0256500Y0220174D01*
X0256500Y0221172D02*
X0256500Y0221172D01*
X0256500Y0222171D02*
X0256500Y0222171D01*
X0256500Y0223170D02*
X0256500Y0223170D01*
X0255903Y0224168D02*
X0257097Y0224168D01*
X0258095Y0225167D02*
X0254905Y0225167D01*
X0253906Y0226165D02*
X0259094Y0226165D01*
X0258765Y0227164D02*
X0254235Y0227164D01*
X0255233Y0228162D02*
X0257767Y0228162D01*
X0256768Y0229161D02*
X0256232Y0229161D01*
X0256500Y0230159D02*
X0256500Y0230159D01*
X0252000Y0230159D02*
X0251000Y0230159D01*
X0251000Y0229161D02*
X0252000Y0229161D01*
X0252000Y0228162D02*
X0251000Y0228162D01*
X0251000Y0227164D02*
X0252000Y0227164D01*
X0252000Y0233155D02*
X0251000Y0233155D01*
X0251000Y0234153D02*
X0252000Y0234153D01*
X0252000Y0235152D02*
X0251000Y0235152D01*
X0251000Y0236150D02*
X0252000Y0236150D01*
X0123500Y0209190D02*
X0397000Y0209190D01*
X0397000Y0208192D02*
X0123500Y0208192D01*
X0123500Y0207193D02*
X0397000Y0207193D01*
X0397000Y0206195D02*
X0123500Y0206195D01*
X0123500Y0205196D02*
X0397000Y0205196D01*
X0397000Y0204198D02*
X0123500Y0204198D01*
X0123500Y0203199D02*
X0397000Y0203199D01*
X0397000Y0202201D02*
X0123500Y0202201D01*
X0123500Y0201202D02*
X0397000Y0201202D01*
X0397000Y0200204D02*
X0123500Y0200204D01*
X0123500Y0199205D02*
X0397000Y0199205D01*
X0397000Y0198207D02*
X0123500Y0198207D01*
X0123500Y0197208D02*
X0397000Y0197208D01*
X0397000Y0196210D02*
X0123500Y0196210D01*
X0123500Y0195211D02*
X0397000Y0195211D01*
X0397000Y0194213D02*
X0123500Y0194213D01*
X0123500Y0193214D02*
X0397000Y0193214D01*
X0397000Y0192216D02*
X0123500Y0192216D01*
X0123500Y0191217D02*
X0397000Y0191217D01*
X0397000Y0190219D02*
X0123500Y0190219D01*
X0123500Y0189220D02*
X0397000Y0189220D01*
X0397000Y0188222D02*
X0123500Y0188222D01*
X0123500Y0187223D02*
X0397000Y0187223D01*
X0397000Y0186225D02*
X0123500Y0186225D01*
X0123500Y0185226D02*
X0397000Y0185226D01*
X0397000Y0184228D02*
X0123500Y0184228D01*
X0123500Y0183229D02*
X0397000Y0183229D01*
X0397000Y0182231D02*
X0123500Y0182231D01*
X0123500Y0181232D02*
X0397000Y0181232D01*
X0397000Y0180234D02*
X0123500Y0180234D01*
X0119500Y0182231D02*
X0006000Y0182231D01*
X0006000Y0183229D02*
X0119500Y0183229D01*
X0119500Y0184228D02*
X0006000Y0184228D01*
X0006000Y0185226D02*
X0119500Y0185226D01*
X0119500Y0186225D02*
X0006000Y0186225D01*
X0006000Y0187223D02*
X0119500Y0187223D01*
X0119500Y0188222D02*
X0006000Y0188222D01*
X0006000Y0189220D02*
X0119500Y0189220D01*
X0119500Y0190219D02*
X0006000Y0190219D01*
X0006000Y0191217D02*
X0119500Y0191217D01*
X0119500Y0192216D02*
X0006000Y0192216D01*
X0006000Y0193214D02*
X0119500Y0193214D01*
X0119500Y0194213D02*
X0006000Y0194213D01*
X0006000Y0195211D02*
X0119500Y0195211D01*
X0119500Y0196210D02*
X0006000Y0196210D01*
X0006000Y0197208D02*
X0119500Y0197208D01*
X0119500Y0198207D02*
X0006000Y0198207D01*
X0006000Y0199205D02*
X0119500Y0199205D01*
X0119500Y0200204D02*
X0006000Y0200204D01*
X0006000Y0201202D02*
X0119500Y0201202D01*
X0117338Y0217178D02*
X0025949Y0217178D01*
X0025687Y0218177D02*
X0049025Y0218177D01*
X0048026Y0219175D02*
X0025118Y0219175D01*
X0024099Y0220174D02*
X0047400Y0220174D01*
X0047400Y0223170D02*
X0024533Y0223170D01*
X0025405Y0224168D02*
X0048370Y0224168D01*
X0049368Y0225167D02*
X0025818Y0225167D01*
X0026000Y0226165D02*
X0105655Y0226165D01*
X0104357Y0227164D02*
X0026000Y0227164D01*
X0018795Y0230159D02*
X0006000Y0230159D01*
X0006000Y0229161D02*
X0017797Y0229161D01*
X0009436Y0233155D02*
X0006000Y0233155D01*
X0006000Y0234153D02*
X0007025Y0234153D01*
X0006000Y0220174D02*
X0018901Y0220174D01*
X0017882Y0219175D02*
X0006000Y0219175D01*
X0006000Y0218177D02*
X0017313Y0218177D01*
X0017051Y0217178D02*
X0006000Y0217178D01*
X0006000Y0216180D02*
X0021000Y0216180D01*
X0021000Y0216000D02*
X0017023Y0216000D01*
X0017111Y0215446D01*
X0017330Y0214773D01*
X0017651Y0214141D01*
X0018068Y0213568D01*
X0018568Y0213068D01*
X0019141Y0212651D01*
X0019773Y0212330D01*
X0020446Y0212111D01*
X0021000Y0212023D01*
X0021000Y0216000D01*
X0021000Y0215181D02*
X0022000Y0215181D01*
X0022000Y0214183D02*
X0021000Y0214183D01*
X0021000Y0213184D02*
X0022000Y0213184D01*
X0022000Y0212186D02*
X0021000Y0212186D01*
X0020215Y0212186D02*
X0006000Y0212186D01*
X0006000Y0213184D02*
X0018452Y0213184D01*
X0017630Y0214183D02*
X0006000Y0214183D01*
X0006000Y0215181D02*
X0017197Y0215181D01*
X0030983Y0233155D02*
X0073189Y0233155D01*
X0072190Y0234153D02*
X0031982Y0234153D01*
X0032980Y0235152D02*
X0071729Y0235152D01*
X0071500Y0236150D02*
X0033979Y0236150D01*
X0034977Y0237149D02*
X0071500Y0237149D01*
X0071853Y0238147D02*
X0053945Y0238147D01*
X0054944Y0239146D02*
X0072489Y0239146D01*
X0078511Y0239146D02*
X0080822Y0239146D01*
X0081621Y0238147D02*
X0079147Y0238147D01*
X0079500Y0237149D02*
X0081500Y0237149D01*
X0081500Y0236150D02*
X0079500Y0236150D01*
X0079271Y0235152D02*
X0081729Y0235152D01*
X0082190Y0234153D02*
X0078810Y0234153D01*
X0077811Y0233155D02*
X0083189Y0233155D01*
X0106953Y0225167D02*
X0053632Y0225167D01*
X0053198Y0225600D02*
X0055600Y0223198D01*
X0055600Y0221800D01*
X0051800Y0221800D01*
X0051200Y0221800D01*
X0051200Y0221200D01*
X0051800Y0221200D01*
X0051800Y0221800D01*
X0051800Y0225600D01*
X0053198Y0225600D01*
X0051800Y0225167D02*
X0051200Y0225167D01*
X0051200Y0224168D02*
X0051800Y0224168D01*
X0051800Y0223170D02*
X0051200Y0223170D01*
X0051200Y0222171D02*
X0051800Y0222171D01*
X0051800Y0221200D02*
X0055600Y0221200D01*
X0055600Y0219802D01*
X0053198Y0217400D01*
X0051800Y0217400D01*
X0051800Y0221200D01*
X0051800Y0221172D02*
X0051200Y0221172D01*
X0051200Y0220174D02*
X0051800Y0220174D01*
X0051800Y0219175D02*
X0051200Y0219175D01*
X0051200Y0218177D02*
X0051800Y0218177D01*
X0053975Y0218177D02*
X0116040Y0218177D01*
X0114742Y0219175D02*
X0054974Y0219175D01*
X0055600Y0220174D02*
X0113444Y0220174D01*
X0112146Y0221172D02*
X0055600Y0221172D01*
X0055600Y0222171D02*
X0110847Y0222171D01*
X0109549Y0223170D02*
X0055600Y0223170D01*
X0054630Y0224168D02*
X0108251Y0224168D01*
X0049055Y0238147D02*
X0035976Y0238147D01*
X0036974Y0239146D02*
X0048056Y0239146D01*
X0078888Y0180234D02*
X0084061Y0180234D01*
X0082578Y0179235D02*
X0079500Y0179235D01*
X0079500Y0178237D02*
X0081890Y0178237D01*
X0081500Y0177238D02*
X0079500Y0177238D01*
X0079500Y0176239D02*
X0081500Y0176239D01*
X0081692Y0175241D02*
X0079500Y0175241D01*
X0079500Y0174242D02*
X0082106Y0174242D01*
X0083099Y0173244D02*
X0079365Y0173244D01*
X0086939Y0180234D02*
X0094061Y0180234D01*
X0039571Y0160263D02*
X0024456Y0160263D01*
X0025454Y0161262D02*
X0037546Y0161262D01*
X0036547Y0162260D02*
X0026453Y0162260D01*
X0027451Y0163259D02*
X0035807Y0163259D01*
X0022000Y0163259D02*
X0021000Y0163259D01*
X0021000Y0164257D02*
X0022000Y0164257D01*
X0022000Y0165256D02*
X0021000Y0165256D01*
X0021000Y0162260D02*
X0022000Y0162260D01*
X0022000Y0161262D02*
X0021000Y0161262D01*
X0021000Y0160263D02*
X0022000Y0160263D01*
X0012400Y0080382D02*
X0006000Y0080382D01*
X0006000Y0079384D02*
X0012818Y0079384D01*
X0031000Y0074391D02*
X0070400Y0074391D01*
X0070809Y0073393D02*
X0031000Y0073393D01*
X0059184Y0078385D02*
X0071587Y0078385D01*
X0072586Y0079384D02*
X0060182Y0079384D01*
X0074200Y0079384D02*
X0074800Y0079384D01*
X0074800Y0078385D02*
X0074200Y0078385D01*
X0074200Y0077387D02*
X0074800Y0077387D01*
X0074800Y0076388D02*
X0074200Y0076388D01*
X0096300Y0066403D02*
X0249332Y0066403D01*
X0248334Y0065405D02*
X0096300Y0065405D01*
X0095035Y0055420D02*
X0083379Y0055420D01*
X0084377Y0054421D02*
X0096033Y0054421D01*
X0097400Y0050427D02*
X0085600Y0050427D01*
X0085227Y0049429D02*
X0097773Y0049429D01*
X0098772Y0048430D02*
X0084228Y0048430D01*
X0083230Y0047432D02*
X0099770Y0047432D01*
X0103739Y0046433D02*
X0041359Y0046433D01*
X0040361Y0047432D02*
X0079770Y0047432D01*
X0078772Y0048430D02*
X0039362Y0048430D01*
X0038364Y0049429D02*
X0077773Y0049429D01*
X0077400Y0050427D02*
X0037365Y0050427D01*
X0042358Y0045434D02*
X0104737Y0045434D01*
X0105736Y0044436D02*
X0043356Y0044436D01*
X0044355Y0043437D02*
X0106734Y0043437D01*
X0107733Y0042439D02*
X0045353Y0042439D01*
X0046352Y0041440D02*
X0108731Y0041440D01*
X0109730Y0040442D02*
X0047350Y0040442D01*
X0048349Y0039443D02*
X0110728Y0039443D01*
X0111727Y0038445D02*
X0049347Y0038445D01*
X0050346Y0037446D02*
X0112725Y0037446D01*
X0113724Y0036448D02*
X0051344Y0036448D01*
X0052343Y0035449D02*
X0114722Y0035449D01*
X0115721Y0034451D02*
X0053341Y0034451D01*
X0054340Y0033452D02*
X0116719Y0033452D01*
X0117718Y0032454D02*
X0055338Y0032454D01*
X0056337Y0031455D02*
X0118716Y0031455D01*
X0119500Y0030457D02*
X0057335Y0030457D01*
X0058334Y0029458D02*
X0058915Y0029458D01*
X0063770Y0029458D02*
X0119500Y0029458D01*
X0119500Y0028460D02*
X0065014Y0028460D01*
X0065772Y0027461D02*
X0119500Y0027461D01*
X0119500Y0026463D02*
X0066186Y0026463D01*
X0066368Y0025464D02*
X0119500Y0025464D01*
X0119500Y0024466D02*
X0066368Y0024466D01*
X0066368Y0023467D02*
X0119500Y0023467D01*
X0118993Y0022469D02*
X0113973Y0022469D01*
X0115379Y0021470D02*
X0117621Y0021470D01*
X0116724Y0020472D02*
X0116201Y0020472D01*
X0112000Y0020472D02*
X0111000Y0020472D01*
X0111000Y0021470D02*
X0112000Y0021470D01*
X0112000Y0022469D02*
X0111000Y0022469D01*
X0109027Y0022469D02*
X0106753Y0022469D01*
X0107050Y0021470D02*
X0107621Y0021470D01*
X0111000Y0019473D02*
X0112000Y0019473D01*
X0112000Y0018475D02*
X0111000Y0018475D01*
X0111000Y0016478D02*
X0112000Y0016478D01*
X0112000Y0015479D02*
X0111000Y0015479D01*
X0111000Y0014481D02*
X0112000Y0014481D01*
X0112000Y0013482D02*
X0111000Y0013482D01*
X0111000Y0012484D02*
X0112000Y0012484D01*
X0113880Y0012484D02*
X0119108Y0012484D01*
X0117669Y0013482D02*
X0115331Y0013482D01*
X0116166Y0014481D02*
X0116743Y0014481D01*
X0109120Y0012484D02*
X0106705Y0012484D01*
X0107050Y0013482D02*
X0107669Y0013482D01*
X0095950Y0021470D02*
X0066368Y0021470D01*
X0066368Y0022469D02*
X0096247Y0022469D01*
X0118382Y0037446D02*
X0229500Y0037446D01*
X0229500Y0036448D02*
X0119381Y0036448D01*
X0120379Y0035449D02*
X0229500Y0035449D01*
X0229500Y0034451D02*
X0121378Y0034451D01*
X0122376Y0033452D02*
X0229500Y0033452D01*
X0229500Y0032454D02*
X0123375Y0032454D01*
X0123500Y0031455D02*
X0229486Y0031455D01*
X0229629Y0030457D02*
X0123500Y0030457D01*
X0123500Y0029458D02*
X0230889Y0029458D01*
X0232220Y0028460D02*
X0123500Y0028460D01*
X0123500Y0027461D02*
X0233552Y0027461D01*
X0234883Y0026463D02*
X0123500Y0026463D01*
X0123500Y0025464D02*
X0236214Y0025464D01*
X0237546Y0024466D02*
X0123500Y0024466D01*
X0123500Y0023467D02*
X0238877Y0023467D01*
X0240208Y0022469D02*
X0124007Y0022469D01*
X0125379Y0021470D02*
X0241540Y0021470D01*
X0242871Y0020472D02*
X0126276Y0020472D01*
X0121500Y0017500D02*
X0165500Y0017500D01*
X0167354Y0018475D02*
X0245534Y0018475D01*
X0246865Y0017476D02*
X0168352Y0017476D01*
X0169351Y0016478D02*
X0247031Y0016478D01*
X0247031Y0015479D02*
X0170349Y0015479D01*
X0171348Y0014481D02*
X0246652Y0014481D01*
X0244202Y0019473D02*
X0166355Y0019473D01*
X0169685Y0010487D02*
X0020000Y0010487D01*
X0019867Y0009488D02*
X0249585Y0009488D01*
X0253415Y0009488D02*
X0259593Y0009488D01*
X0258225Y0010487D02*
X0254775Y0010487D01*
X0255489Y0011485D02*
X0257528Y0011485D01*
X0257142Y0012484D02*
X0255903Y0012484D01*
X0255968Y0013482D02*
X0257031Y0013482D01*
X0257031Y0014481D02*
X0255968Y0014481D01*
X0255968Y0015479D02*
X0257031Y0015479D01*
X0265968Y0015479D02*
X0267031Y0015479D01*
X0267031Y0014481D02*
X0265968Y0014481D01*
X0265968Y0013482D02*
X0267031Y0013482D01*
X0267097Y0012484D02*
X0265858Y0012484D01*
X0265472Y0011485D02*
X0267511Y0011485D01*
X0268225Y0010487D02*
X0264775Y0010487D01*
X0271500Y0016500D02*
X0271500Y0051500D01*
X0281500Y0051500D02*
X0281500Y0016500D01*
X0249477Y0023467D02*
X0245544Y0023467D01*
X0246875Y0022469D02*
X0248181Y0022469D01*
X0229500Y0038445D02*
X0117383Y0038445D01*
X0116385Y0039443D02*
X0229500Y0039443D01*
X0229500Y0040442D02*
X0115386Y0040442D01*
X0114388Y0041440D02*
X0229500Y0041440D01*
X0229500Y0042439D02*
X0113389Y0042439D01*
X0112391Y0043437D02*
X0229500Y0043437D01*
X0229500Y0044436D02*
X0111392Y0044436D01*
X0110394Y0045434D02*
X0229500Y0045434D01*
X0229500Y0046433D02*
X0109395Y0046433D01*
X0108397Y0047432D02*
X0229500Y0047432D01*
X0229500Y0048430D02*
X0107398Y0048430D01*
X0106400Y0049429D02*
X0229500Y0049429D01*
X0229500Y0050427D02*
X0105600Y0050427D01*
X0105600Y0051426D02*
X0229500Y0051426D01*
X0229596Y0052424D02*
X0105600Y0052424D01*
X0105376Y0053423D02*
X0230594Y0053423D01*
X0231593Y0054421D02*
X0104377Y0054421D01*
X0103379Y0055420D02*
X0232591Y0055420D01*
X0283653Y0056418D02*
X0289347Y0056418D01*
X0288512Y0057417D02*
X0284488Y0057417D01*
X0285486Y0058415D02*
X0287514Y0058415D01*
X0286515Y0059414D02*
X0286485Y0059414D01*
X0286500Y0060412D02*
X0286500Y0060412D01*
X0286500Y0061411D02*
X0286500Y0061411D01*
X0286500Y0062409D02*
X0286500Y0062409D01*
X0286500Y0063408D02*
X0286500Y0063408D01*
X0285665Y0064406D02*
X0287335Y0064406D01*
X0288334Y0065405D02*
X0284666Y0065405D01*
X0283668Y0066403D02*
X0289332Y0066403D01*
X0293668Y0066403D02*
X0299332Y0066403D01*
X0298334Y0065405D02*
X0294666Y0065405D01*
X0295665Y0064406D02*
X0297335Y0064406D01*
X0296500Y0063408D02*
X0296500Y0063408D01*
X0296500Y0062409D02*
X0296500Y0062409D01*
X0296500Y0061411D02*
X0296500Y0061411D01*
X0296500Y0060412D02*
X0296500Y0060412D01*
X0296485Y0059414D02*
X0296515Y0059414D01*
X0297514Y0058415D02*
X0295486Y0058415D01*
X0294488Y0057417D02*
X0298512Y0057417D01*
X0299347Y0056418D02*
X0293653Y0056418D01*
X0294651Y0055420D02*
X0298349Y0055420D01*
X0297350Y0054421D02*
X0295650Y0054421D01*
X0296500Y0053423D02*
X0296500Y0053423D01*
X0296500Y0052424D02*
X0296500Y0052424D01*
X0296500Y0051426D02*
X0296500Y0051426D01*
X0296500Y0050427D02*
X0296500Y0050427D01*
X0296500Y0049429D02*
X0296500Y0049429D01*
X0295501Y0048430D02*
X0297499Y0048430D01*
X0298497Y0047432D02*
X0294503Y0047432D01*
X0288497Y0047432D02*
X0284503Y0047432D01*
X0285501Y0048430D02*
X0287499Y0048430D01*
X0286500Y0049429D02*
X0286500Y0049429D01*
X0286500Y0050427D02*
X0286500Y0050427D01*
X0286500Y0051426D02*
X0286500Y0051426D01*
X0286500Y0052424D02*
X0286500Y0052424D01*
X0286500Y0053423D02*
X0286500Y0053423D01*
X0285650Y0054421D02*
X0287350Y0054421D01*
X0288349Y0055420D02*
X0284651Y0055420D01*
X0303653Y0056418D02*
X0309347Y0056418D01*
X0308512Y0057417D02*
X0304488Y0057417D01*
X0305486Y0058415D02*
X0307514Y0058415D01*
X0306515Y0059414D02*
X0306485Y0059414D01*
X0306500Y0060412D02*
X0306500Y0060412D01*
X0306500Y0061411D02*
X0306500Y0061411D01*
X0306500Y0062409D02*
X0306500Y0062409D01*
X0306500Y0063408D02*
X0306500Y0063408D01*
X0305665Y0064406D02*
X0307335Y0064406D01*
X0308334Y0065405D02*
X0304666Y0065405D01*
X0303668Y0066403D02*
X0309332Y0066403D01*
X0313668Y0066403D02*
X0319332Y0066403D01*
X0318334Y0065405D02*
X0314666Y0065405D01*
X0315665Y0064406D02*
X0317335Y0064406D01*
X0316500Y0063408D02*
X0316500Y0063408D01*
X0316500Y0062409D02*
X0316500Y0062409D01*
X0316500Y0061411D02*
X0316500Y0061411D01*
X0316500Y0060412D02*
X0316500Y0060412D01*
X0316485Y0059414D02*
X0316515Y0059414D01*
X0317514Y0058415D02*
X0315486Y0058415D01*
X0314488Y0057417D02*
X0318512Y0057417D01*
X0319347Y0056418D02*
X0313653Y0056418D01*
X0314651Y0055420D02*
X0318349Y0055420D01*
X0317350Y0054421D02*
X0315650Y0054421D01*
X0316500Y0053423D02*
X0316500Y0053423D01*
X0316500Y0052424D02*
X0316500Y0052424D01*
X0316500Y0051426D02*
X0316500Y0051426D01*
X0316500Y0050427D02*
X0316500Y0050427D01*
X0316500Y0049429D02*
X0316500Y0049429D01*
X0315501Y0048430D02*
X0317499Y0048430D01*
X0318497Y0047432D02*
X0314503Y0047432D01*
X0308497Y0047432D02*
X0304503Y0047432D01*
X0305501Y0048430D02*
X0307499Y0048430D01*
X0306500Y0049429D02*
X0306500Y0049429D01*
X0306500Y0050427D02*
X0306500Y0050427D01*
X0306500Y0051426D02*
X0306500Y0051426D01*
X0306500Y0052424D02*
X0306500Y0052424D01*
X0306500Y0053423D02*
X0306500Y0053423D01*
X0305650Y0054421D02*
X0307350Y0054421D01*
X0308349Y0055420D02*
X0304651Y0055420D01*
X0323653Y0056418D02*
X0329347Y0056418D01*
X0328512Y0057417D02*
X0324488Y0057417D01*
X0325486Y0058415D02*
X0327514Y0058415D01*
X0326515Y0059414D02*
X0326485Y0059414D01*
X0326500Y0060412D02*
X0326500Y0060412D01*
X0326500Y0061411D02*
X0326500Y0061411D01*
X0326500Y0062409D02*
X0326500Y0062409D01*
X0326500Y0063408D02*
X0326500Y0063408D01*
X0325665Y0064406D02*
X0327335Y0064406D01*
X0328334Y0065405D02*
X0324666Y0065405D01*
X0323668Y0066403D02*
X0329332Y0066403D01*
X0333668Y0066403D02*
X0339332Y0066403D01*
X0338334Y0065405D02*
X0334666Y0065405D01*
X0335665Y0064406D02*
X0337335Y0064406D01*
X0336500Y0063408D02*
X0336500Y0063408D01*
X0336500Y0062409D02*
X0336500Y0062409D01*
X0336500Y0061411D02*
X0336500Y0061411D01*
X0336500Y0060412D02*
X0336500Y0060412D01*
X0336485Y0059414D02*
X0336515Y0059414D01*
X0337514Y0058415D02*
X0335486Y0058415D01*
X0334488Y0057417D02*
X0338512Y0057417D01*
X0339347Y0056418D02*
X0333653Y0056418D01*
X0334651Y0055420D02*
X0338349Y0055420D01*
X0337350Y0054421D02*
X0335650Y0054421D01*
X0336500Y0053423D02*
X0336500Y0053423D01*
X0336500Y0052424D02*
X0336500Y0052424D01*
X0336500Y0051426D02*
X0336500Y0051426D01*
X0336500Y0050427D02*
X0336500Y0050427D01*
X0336500Y0049429D02*
X0336500Y0049429D01*
X0335501Y0048430D02*
X0337499Y0048430D01*
X0338497Y0047432D02*
X0334503Y0047432D01*
X0328497Y0047432D02*
X0324503Y0047432D01*
X0325501Y0048430D02*
X0327499Y0048430D01*
X0326500Y0049429D02*
X0326500Y0049429D01*
X0326500Y0050427D02*
X0326500Y0050427D01*
X0326500Y0051426D02*
X0326500Y0051426D01*
X0326500Y0052424D02*
X0326500Y0052424D01*
X0326500Y0053423D02*
X0326500Y0053423D01*
X0325650Y0054421D02*
X0327350Y0054421D01*
X0328349Y0055420D02*
X0324651Y0055420D01*
X0394463Y0019473D02*
X0397000Y0019473D01*
X0397000Y0018475D02*
X0396546Y0018475D01*
X0121500Y0017500D02*
X0121500Y0031500D01*
X0101500Y0051500D01*
X0081800Y0052424D02*
X0081200Y0052424D01*
X0081200Y0053423D02*
X0081800Y0053423D01*
X0081800Y0054421D02*
X0081200Y0054421D01*
X0081200Y0055420D02*
X0081800Y0055420D01*
X0081800Y0050427D02*
X0081200Y0050427D01*
X0081200Y0049429D02*
X0081800Y0049429D01*
X0081800Y0048430D02*
X0081200Y0048430D01*
X0081200Y0047432D02*
X0081800Y0047432D01*
X0052428Y0025464D02*
X0046676Y0025464D01*
X0046682Y0024466D02*
X0053427Y0024466D01*
X0054426Y0023467D02*
X0046682Y0023467D01*
X0046682Y0022469D02*
X0055424Y0022469D01*
X0051430Y0026463D02*
X0046474Y0026463D01*
X0046056Y0027461D02*
X0050431Y0027461D01*
X0049433Y0028460D02*
X0045329Y0028460D01*
X0044025Y0029458D02*
X0048434Y0029458D01*
X0042157Y0029458D02*
X0041157Y0029458D01*
X0041157Y0028460D02*
X0042157Y0028460D01*
X0042157Y0027461D02*
X0041157Y0027461D01*
X0041157Y0026463D02*
X0042157Y0026463D01*
X0042157Y0025464D02*
X0041157Y0025464D01*
X0041157Y0024466D02*
X0042157Y0024466D01*
X0042157Y0023467D02*
X0041157Y0023467D01*
X0041157Y0022469D02*
X0042157Y0022469D01*
X0042157Y0019473D02*
X0041157Y0019473D01*
X0041157Y0018475D02*
X0042157Y0018475D01*
X0042157Y0017476D02*
X0041157Y0017476D01*
X0041157Y0016478D02*
X0042157Y0016478D01*
X0042157Y0015479D02*
X0041157Y0015479D01*
X0041157Y0014481D02*
X0042157Y0014481D01*
X0042157Y0013482D02*
X0041157Y0013482D01*
X0039407Y0013482D02*
X0019879Y0013482D01*
X0019466Y0014481D02*
X0038045Y0014481D01*
X0037289Y0015479D02*
X0019052Y0015479D01*
X0018543Y0016478D02*
X0036860Y0016478D01*
X0036649Y0017476D02*
X0017545Y0017476D01*
X0016546Y0018475D02*
X0036632Y0018475D01*
X0036632Y0019473D02*
X0014463Y0019473D01*
X0008537Y0019473D02*
X0006000Y0019473D01*
X0006000Y0018475D02*
X0006454Y0018475D01*
X0006000Y0020472D02*
X0036632Y0020472D01*
D24*
X0191500Y0027500D03*
D25*
X0061500Y0161500D03*
D26*
X0091500Y0136500D02*
X0091500Y0116500D01*
X0106500Y0101500D01*
X0091500Y0116500D02*
X0027500Y0116500D01*
X0027500Y0106500D02*
X0027500Y0055500D01*
X0031500Y0051500D01*
X0031500Y0051343D01*
X0061343Y0021500D01*
X0065343Y0017500D01*
X0101500Y0017500D01*
X0056500Y0081500D02*
X0066500Y0091500D01*
X0066500Y0101500D01*
X0051500Y0127500D02*
X0027500Y0126500D01*
D27*
X0094500Y0075500D02*
X0094500Y0058500D01*
X0101500Y0051500D01*
X0105500Y0075500D02*
X0094500Y0075500D01*
X0105500Y0075500D02*
X0111500Y0081500D01*
D28*
X0051500Y0127500D03*
X0111500Y0161500D03*
M02*
